<?xml version="1.0" encoding="UTF-8" standalone="no"?>
<svg width="292px" height="134px" viewBox="0 0 292 134" version="1.1" xmlns="http://www.w3.org/2000/svg" xmlns:xlink="http://www.w3.org/1999/xlink" xmlns:sketch="http://www.bohemiancoding.com/sketch/ns">
    <!-- Generator: Sketch 3.3.2 (12043) - http://www.bohemiancoding.com/sketch -->
    <title>white</title>
    <desc>Created with Sketch.</desc>
    <defs></defs>
    <g id="Page-1" stroke="none" stroke-width="1" fill="none" fill-rule="evenodd" sketch:type="MSPage">
        <g id="white" sketch:type="MSLayerGroup" transform="translate(-1.000000, 0.000000)" fill="#FFFFFF">
            <g id="tanning-&amp;-beauty-lou" transform="translate(10.000000, 97.000000)" sketch:type="MSShapeGroup">
                <path d="M4.32324219,18.1791992 L2.78320312,24.927002 C2.62109294,25.670007 2.54003906,26.1968572 2.54003906,26.5075684 C2.54003906,26.9938989 2.65486539,27.3856593 2.88452148,27.6828613 C3.11417758,27.9800633 3.41812962,28.1286621 3.79638672,28.1286621 C4.16113464,28.1286621 4.49548188,28.0239675 4.79943848,27.8145752 C5.10339507,27.6051829 5.56607762,27.1695183 6.1875,26.5075684 L6.43066406,26.2644043 L6.73461914,26.5683594 C5.9375774,27.5410205 5.27226016,28.2266012 4.73864746,28.6251221 C4.20503477,29.0236429 3.68156181,29.2229004 3.16821289,29.2229004 C2.51977215,29.2229004 2.00305368,29.010134 1.61804199,28.5845947 C1.2330303,28.1590555 1.04052734,27.6018101 1.04052734,26.9128418 C1.04052734,26.3994929 1.14184469,25.656499 1.34448242,24.6838379 L2.66162109,18.1791992 L0.716308594,18.1791992 L0.858154297,17.4902344 L2.8034668,17.4902344 L3.93823242,12.019043 L5.88354492,11.2490234 L4.46508789,17.4902344 L7.74780273,17.4902344 L7.60595703,18.1791992 L4.32324219,18.1791992 Z M19.3183594,17.0241699 L17.4135742,24.4406738 C17.2109365,25.2512248 17.1096191,25.8861468 17.1096191,26.345459 C17.1096191,26.7507344 17.1974275,27.1019679 17.3730469,27.3991699 C17.5486662,27.6963719 17.7648099,27.8449707 18.0214844,27.8449707 C18.4132507,27.8449707 19.0616817,27.3654019 19.9667969,26.40625 L20.2504883,26.6899414 L20.0275879,26.9533691 C19.3116012,27.7774293 18.7611103,28.3549381 18.3760986,28.6859131 C17.9910869,29.016888 17.6567397,29.182373 17.3730469,29.182373 C16.940753,29.182373 16.5658789,28.9560976 16.2484131,28.50354 C15.9309473,28.0509824 15.7722168,27.5275095 15.7722168,26.9331055 C15.7722168,26.5008116 15.9343246,25.5214106 16.2585449,23.994873 L16.4206543,23.2248535 C15.9208146,24.3866432 15.2521201,25.501134 14.4145508,26.5683594 C13.0095958,28.3515714 11.6654524,29.2431641 10.3820801,29.2431641 C9.6120567,29.2431641 9.00415262,28.96623 8.55834961,28.4123535 C8.1125466,27.858477 7.88964844,27.1154832 7.88964844,26.1833496 C7.88964844,24.9134865 8.25101364,23.582852 8.97375488,22.1914062 C9.69649613,20.7999605 10.5948433,19.6550745 11.6688232,18.7567139 C12.7428032,17.8583533 13.7863719,17.4091797 14.7995605,17.4091797 C15.8667859,17.4091797 16.6638157,17.8009401 17.1906738,18.5844727 L17.4135742,17.8144531 L19.3183594,17.0241699 Z M16.9880371,19.6179199 C16.8259269,19.104571 16.5523701,18.7026789 16.1673584,18.4122314 C15.7823467,18.121784 15.3399276,17.9765625 14.8400879,17.9765625 C14.2456839,17.9765625 13.6175163,18.2501193 12.9555664,18.7972412 C12.2936165,19.3443631 11.6857124,20.1042432 11.1318359,21.0769043 C10.6995421,21.8469277 10.3381769,22.6979934 10.0477295,23.630127 C9.75728208,24.5622605 9.61206055,25.3322724 9.61206055,25.9401855 C9.61206055,26.6291538 9.7437731,27.169513 10.0072021,27.5612793 C10.2706312,27.9530456 10.6455054,28.1489258 11.1318359,28.1489258 C11.7532583,28.1489258 12.4016893,27.8584827 13.0771484,27.2775879 C13.7526075,26.6966931 14.421302,25.8658908 15.083252,24.7851562 C15.4885274,24.1637339 15.8059884,23.5423208 16.0356445,22.9208984 C16.2653006,22.2994761 16.5219712,21.4349014 16.8056641,20.3271484 L16.9880371,19.6179199 Z M21.5878906,29.2026367 L23.7358398,17.9765625 L25.6608887,17.145752 L23.9182129,24.5825195 C25.039475,22.2184127 26.1539658,20.4217184 27.2617188,19.1923828 C28.3694717,17.9630472 29.4299266,17.3483887 30.4431152,17.3483887 C30.942955,17.3483887 31.3482244,17.5138737 31.6589355,17.8448486 C31.9696467,18.1758236 32.125,18.6182427 32.125,19.1721191 C32.125,19.4828303 32.0507006,19.9218722 31.9020996,20.4892578 L31.6994629,21.340332 L31.0915527,23.8125 L30.888916,24.6027832 C30.6862783,25.4133341 30.5849609,26.0347472 30.5849609,26.467041 C30.5849609,26.8993348 30.6592603,27.2471911 30.8078613,27.5106201 C30.9564623,27.7740492 31.1523425,27.9057617 31.3955078,27.9057617 C31.8142925,27.9057617 32.4829869,27.4059295 33.4016113,26.40625 L33.7258301,26.6899414 L33.5231934,26.9128418 C32.75317,27.817957 32.1857928,28.4292383 31.8210449,28.7467041 C31.456297,29.0641699 31.1185725,29.2229004 30.8078613,29.2229004 C30.3890767,29.2229004 30.034466,29.010134 29.7440186,28.5845947 C29.4535711,28.1590555 29.3083496,27.628828 29.3083496,26.9938965 C29.3083496,26.5616027 29.3894035,25.9199261 29.5515137,25.0688477 L30.3417969,20.7729492 C30.4498703,20.0974901 30.5039062,19.6246758 30.5039062,19.3544922 C30.5039062,19.0707994 30.4296069,18.8546557 30.2810059,18.7060547 C30.1324049,18.5574537 29.9297702,18.4831543 29.6730957,18.4831543 C28.7409621,18.4831543 27.5926989,19.4828188 26.2282715,21.4821777 C25.5663216,22.4413297 25.0192079,23.3903355 24.5869141,24.3292236 C24.1546202,25.2681118 23.668297,26.5683511 23.1279297,28.2299805 L22.9455566,28.7770996 L21.5878906,29.2026367 Z M35.0429688,29.2026367 L37.190918,17.9765625 L39.1159668,17.145752 L37.373291,24.5825195 C38.4945531,22.2184127 39.6090439,20.4217184 40.7167969,19.1923828 C41.8245498,17.9630472 42.8850047,17.3483887 43.8981934,17.3483887 C44.3980331,17.3483887 44.8033025,17.5138737 45.1140137,17.8448486 C45.4247249,18.1758236 45.5800781,18.6182427 45.5800781,19.1721191 C45.5800781,19.4828303 45.5057787,19.9218722 45.3571777,20.4892578 L45.154541,21.340332 L44.5466309,23.8125 L44.3439941,24.6027832 C44.1413564,25.4133341 44.0400391,26.0347472 44.0400391,26.467041 C44.0400391,26.8993348 44.1143384,27.2471911 44.2629395,27.5106201 C44.4115405,27.7740492 44.6074207,27.9057617 44.8505859,27.9057617 C45.2693706,27.9057617 45.9380651,27.4059295 46.8566895,26.40625 L47.1809082,26.6899414 L46.9782715,26.9128418 C46.2082481,27.817957 45.640871,28.4292383 45.276123,28.7467041 C44.9113751,29.0641699 44.5736506,29.2229004 44.2629395,29.2229004 C43.8441548,29.2229004 43.4895441,29.010134 43.1990967,28.5845947 C42.9086493,28.1590555 42.7634277,27.628828 42.7634277,26.9938965 C42.7634277,26.5616027 42.8444816,25.9199261 43.0065918,25.0688477 L43.796875,20.7729492 C43.9049485,20.0974901 43.9589844,19.6246758 43.9589844,19.3544922 C43.9589844,19.0707994 43.884685,18.8546557 43.736084,18.7060547 C43.587483,18.5574537 43.3848483,18.4831543 43.1281738,18.4831543 C42.1960403,18.4831543 41.047777,19.4828188 39.6833496,21.4821777 C39.0213997,22.4413297 38.474286,23.3903355 38.0419922,24.3292236 C37.6096984,25.2681118 37.1233751,26.5683511 36.5830078,28.2299805 L36.4006348,28.7770996 L35.0429688,29.2026367 Z M52.935791,9.20239258 C53.2870298,9.20239258 53.5707183,9.31046441 53.7868652,9.52661133 C54.0030121,9.74275824 54.111084,10.0264468 54.111084,10.3776855 C54.111084,10.7154151 53.9962577,10.9991037 53.7666016,11.2287598 C53.5369455,11.4584159 53.2600114,11.5732422 52.935791,11.5732422 C52.6250798,11.5732422 52.3481457,11.4516614 52.1049805,11.2084961 C51.8618152,10.9653308 51.7402344,10.6883967 51.7402344,10.3776855 C51.7402344,10.0534652 51.8550607,9.7765311 52.0847168,9.546875 C52.3143729,9.3172189 52.5980615,9.20239258 52.935791,9.20239258 L52.935791,9.20239258 Z M52.3481445,17.145752 L50.5649414,23.8125 C50.2677394,24.9067438 50.1191406,25.7848274 50.1191406,26.4467773 C50.1191406,26.8790712 50.19344,27.2303046 50.342041,27.5004883 C50.490642,27.7706719 50.6865222,27.9057617 50.9296875,27.9057617 C51.3484721,27.9057617 52.0171666,27.4059295 52.935791,26.40625 L53.2600098,26.6899414 L53.057373,26.9128418 C52.2873497,27.817957 51.7199725,28.4292383 51.3552246,28.7467041 C50.9904767,29.0641699 50.6527522,29.2229004 50.342041,29.2229004 C49.9232564,29.2229004 49.5686457,29.010134 49.2781982,28.5845947 C48.9877508,28.1590555 48.8425293,27.628828 48.8425293,26.9938965 C48.8425293,26.588621 48.9235832,25.9469445 49.0856934,25.0688477 L50.3623047,17.9765625 L52.3481445,17.145752 Z M54.4758301,29.2026367 L56.6237793,17.9765625 L58.5488281,17.145752 L56.8061523,24.5825195 C57.9274145,22.2184127 59.0419053,20.4217184 60.1496582,19.1923828 C61.2574111,17.9630472 62.317866,17.3483887 63.3310547,17.3483887 C63.8308944,17.3483887 64.2361638,17.5138737 64.546875,17.8448486 C64.8575862,18.1758236 65.0129395,18.6182427 65.0129395,19.1721191 C65.0129395,19.4828303 64.9386401,19.9218722 64.7900391,20.4892578 L64.5874023,21.340332 L63.9794922,23.8125 L63.7768555,24.6027832 C63.5742177,25.4133341 63.4729004,26.0347472 63.4729004,26.467041 C63.4729004,26.8993348 63.5471998,27.2471911 63.6958008,27.5106201 C63.8444018,27.7740492 64.040282,27.9057617 64.2834473,27.9057617 C64.7022319,27.9057617 65.3709264,27.4059295 66.2895508,26.40625 L66.6137695,26.6899414 L66.4111328,26.9128418 C65.6411094,27.817957 65.0737323,28.4292383 64.7089844,28.7467041 C64.3442365,29.0641699 64.006512,29.2229004 63.6958008,29.2229004 C63.2770161,29.2229004 62.9224054,29.010134 62.631958,28.5845947 C62.3415106,28.1590555 62.1962891,27.628828 62.1962891,26.9938965 C62.1962891,26.5616027 62.2773429,25.9199261 62.4394531,25.0688477 L63.2297363,20.7729492 C63.3378098,20.0974901 63.3918457,19.6246758 63.3918457,19.3544922 C63.3918457,19.0707994 63.3175463,18.8546557 63.1689453,18.7060547 C63.0203443,18.5574537 62.8177096,18.4831543 62.5610352,18.4831543 C61.6289016,18.4831543 60.4806383,19.4828188 59.1162109,21.4821777 C58.454261,22.4413297 57.9071473,23.3903355 57.4748535,24.3292236 C57.0425597,25.2681118 56.5562364,26.5683511 56.0158691,28.2299805 L55.8334961,28.7770996 L54.4758301,29.2026367 Z M79.0556641,17.0241699 L75.9553223,29.3647461 C75.6446111,30.6886459 75.3710542,31.6612925 75.1346436,32.2827148 C74.8982329,32.9041372 74.6111671,33.4715144 74.2734375,33.9848633 C73.6385059,34.9575244 72.8651169,35.7038955 71.9532471,36.223999 C71.0413773,36.7441025 70.058599,37.0041504 69.0048828,37.0041504 C68.0457309,37.0041504 67.2014197,36.7339708 66.4719238,36.1936035 L67.5053711,34.8562012 C68.3834679,35.6937705 69.2547971,36.1125488 70.1193848,36.1125488 C70.6732612,36.1125488 71.2338839,35.9369321 71.8012695,35.5856934 C72.3686552,35.2344546 72.7874335,34.8021673 73.0576172,34.2888184 C73.4088559,33.667396 73.7735984,32.5393962 74.1518555,30.9047852 L75.7121582,24.2177734 C73.9019278,27.595069 72.0647066,29.2836914 70.2004395,29.2836914 C69.4439253,29.2836914 68.8326439,28.9966256 68.3665771,28.4224854 C67.9005104,27.8483451 67.6674805,27.115483 67.6674805,26.223877 C67.6674805,24.9540138 68.0254684,23.6301338 68.7414551,22.2521973 C69.4574417,20.8742607 70.3591661,19.7293747 71.4466553,18.8175049 C72.5341444,17.9056351 73.5912221,17.449707 74.6179199,17.449707 C75.5770719,17.449707 76.3741016,17.807695 77.0090332,18.5236816 L77.1914062,17.8144531 L79.0556641,17.0241699 Z M76.7861328,19.5368652 C76.2592747,18.5236766 75.5635623,18.0170898 74.6989746,18.0170898 C73.7938594,18.0170898 72.9022668,18.5169221 72.0241699,19.5166016 C71.3081833,20.3541709 70.6969019,21.404494 70.1903076,22.6676025 C69.6837133,23.9307111 69.4304199,25.0620881 69.4304199,26.0617676 C69.4304199,26.7372267 69.5756415,27.2674541 69.8660889,27.6524658 C70.1565363,28.0374775 70.5651829,28.2299805 71.092041,28.2299805 C71.6324083,28.2299805 72.2301806,27.9327829 72.885376,27.3383789 C73.5405713,26.7439749 74.1923796,25.9064182 74.8408203,24.8256836 C75.5838253,23.596348 76.157957,22.1373782 76.5632324,20.4487305 L76.7861328,19.5368652 Z M89.7670898,28.5683594 C89.7504882,28.5738933 89.7421875,28.5794271 89.7421875,28.5849609 L89.6757812,28.6181641 C88.9065717,29.0166036 88.0903363,29.2158203 87.2270508,29.2158203 C86.5463833,29.2158203 85.9418158,29.0940767 85.4133301,28.8505859 C84.8848444,28.6070951 84.4781101,28.2612327 84.1931152,27.8129883 C83.9081203,27.3647439 83.765625,26.8445668 83.765625,26.2524414 C83.765625,24.9077081 84.6565666,23.729009 86.4384766,22.7163086 L86.496582,22.6831055 L86.496582,22.6499023 L86.496582,22.6333008 C86.496582,22.0356415 86.5878897,21.4504423 86.7705078,20.8776855 C86.9531259,20.3049288 87.1938462,19.8359393 87.4926758,19.4707031 C88.0349962,18.8121712 88.6298796,18.4829102 89.2773438,18.4829102 C89.6259783,18.4829102 89.9095855,18.583902 90.1281738,18.7858887 C90.3467622,18.9878754 90.4560547,19.2382798 90.4560547,19.5371094 C90.4560547,20.2067091 89.9552459,20.8624642 88.9536133,21.5043945 C88.7875968,21.6150722 88.4777041,21.7976875 88.0239258,22.0522461 C87.5314103,22.3234063 87.2076831,22.497721 87.0527344,22.5751953 C87.0748699,23.0732447 87.2035307,23.643226 87.4387207,24.2851562 C87.6739107,24.9270865 87.9602848,25.4943009 88.2978516,25.9868164 C88.8125026,26.7394243 89.459957,27.4007133 90.2402344,27.9707031 C90.6276061,27.694009 90.9734685,27.3716653 91.277832,27.0036621 C91.5821955,26.635659 91.8215323,26.2565937 91.9958496,25.8664551 C92.1701669,25.4763164 92.2573242,25.1097022 92.2573242,24.7666016 C92.2573242,24.4124331 92.1646331,24.126059 91.979248,23.9074707 C91.793863,23.6888824 91.5545262,23.5795898 91.2612305,23.5795898 C90.486487,23.5795898 89.9109719,24.2574802 89.534668,25.6132812 L89.1030273,24.9741211 C89.2081711,24.6144188 89.3645009,24.2934584 89.5720215,24.0112305 C89.7795421,23.7290025 90.0202623,23.5104174 90.2941895,23.3554688 C90.5681166,23.2005201 90.8517238,23.1230469 91.1450195,23.1230469 C91.4106459,23.1230469 91.6513661,23.1894525 91.8671875,23.3222656 C92.0830089,23.4550788 92.2531732,23.640461 92.3776855,23.878418 C92.5021979,24.1163749 92.5644531,24.3792303 92.5644531,24.6669922 C92.5644531,24.9492202 92.511882,25.2438949 92.4067383,25.5510254 C92.3015945,25.8581558 92.1577158,26.1611313 91.9750977,26.4599609 C91.7924796,26.7587906 91.5642104,27.0576157 91.2902832,27.3564453 C91.0163561,27.6552749 90.7382827,27.9070628 90.4560547,28.1118164 L90.4975586,28.1367188 C91.0620145,28.4908872 91.6319958,28.6679688 92.2075195,28.6679688 C92.6502301,28.6679688 93.0279118,28.5821949 93.3405762,28.4106445 C93.6532405,28.2390942 93.9700505,27.9485698 94.2910156,27.5390625 L94.4072266,27.671875 C93.7486946,28.6735076 92.8909558,29.1743164 91.8339844,29.1743164 C91.1256475,29.1743164 90.4366895,28.9723327 89.7670898,28.5683594 L89.7670898,28.5683594 Z M89.5097656,28.4106445 C88.6630817,27.8572563 87.9713569,27.0977425 87.4345703,26.1320801 C86.8977838,25.1664177 86.587891,24.1163794 86.5048828,22.9819336 L86.496582,22.9404297 C85.2569925,23.7317748 84.637207,24.6946558 84.637207,25.8291016 C84.637207,26.6757855 84.9332653,27.3799614 85.5253906,27.9416504 C86.117516,28.5033394 86.859045,28.7841797 87.75,28.7841797 C88.3642609,28.7841797 88.9508436,28.6596692 89.5097656,28.4106445 L89.5097656,28.4106445 Z M87.0527344,22.3427734 C87.8440795,21.9221984 88.4417298,21.5542008 88.8457031,21.2387695 C89.1500666,21.0118804 89.3935538,20.7448746 89.5761719,20.4377441 C89.75879,20.1306137 89.8500977,19.8387058 89.8500977,19.5620117 C89.8500977,19.3240548 89.7767748,19.1386725 89.630127,19.0058594 C89.4834791,18.8730462 89.2884127,18.8066406 89.0449219,18.8066406 C88.6907534,18.8066406 88.360109,18.9519028 88.0529785,19.2424316 C87.7458481,19.5329604 87.5009775,19.9230933 87.3183594,20.4128418 C87.1357413,20.9025903 87.0444336,21.4269178 87.0444336,21.9858398 L87.0444336,22.2016602 L87.0527344,22.3427734 Z M102.543213,1.48193359 L104.691162,0.448486328 L98.8552246,25.4335937 C101.286877,20.0029025 103.671212,17.2875977 106.008301,17.2875977 C106.481122,17.2875977 106.903278,17.4125557 107.27478,17.6624756 C107.646283,17.9123955 107.936726,18.2805151 108.146118,18.7668457 C108.35551,19.2531763 108.460205,19.7665175 108.460205,20.3068848 C108.460205,21.3335826 108.217043,22.4717141 107.730713,23.7213135 C107.244382,24.9709128 106.629724,26.0414994 105.886719,26.9331055 C104.562819,28.5406981 103.103849,29.3444824 101.509766,29.3444824 C101.009926,29.3444824 100.530357,29.2600513 100.071045,29.0911865 C99.6117327,28.9223217 99.0983915,28.6420104 98.5310059,28.2502441 L97.1125488,29.1013184 L102.543213,1.48193359 Z M98.8552246,26.9331055 C99.4631378,28.2029686 100.334467,28.8378906 101.469238,28.8378906 C102.279789,28.8378906 103.032915,28.4866572 103.728638,27.7841797 C104.424361,27.0817022 105.042396,26.0617743 105.582764,24.7243652 C105.893475,23.967851 106.150145,23.1471805 106.352783,22.2623291 C106.555421,21.3774777 106.656738,20.6716335 106.656738,20.1447754 C106.656738,18.8749123 106.210942,18.2399902 105.319336,18.2399902 C104.724932,18.2399902 104.049483,18.6047327 103.292969,19.3342285 C102.536455,20.0637244 101.776574,21.0802751 101.013306,22.3839111 C100.250037,23.6875472 99.5306837,25.2039302 98.8552246,26.9331055 L98.8552246,26.9331055 Z M118.409668,25.8591309 L118.774414,26.1630859 C117.936845,27.2708389 117.119552,28.0712459 116.32251,28.5643311 C115.525468,29.0574162 114.667648,29.3039551 113.749023,29.3039551 C112.65478,29.3039551 111.776696,28.9392126 111.114746,28.2097168 C110.452796,27.480221 110.121826,26.5143289 110.121826,25.3120117 C110.121826,24.0961853 110.442664,22.8634909 111.084351,21.6138916 C111.726037,20.3642923 112.529821,19.3308553 113.495728,18.5135498 C114.461634,17.6962443 115.417394,17.2875977 116.363037,17.2875977 C116.916914,17.2875977 117.372842,17.4497054 117.730835,17.7739258 C118.088828,18.0981462 118.267822,18.5169245 118.267822,19.0302734 C118.267822,20.0704805 117.700445,21.1106719 116.565674,22.1508789 C115.430903,23.1910859 113.884124,24.0759241 111.925293,24.8054199 C111.911784,24.9134934 111.905029,25.0350742 111.905029,25.170166 C111.905029,26.1022996 112.1617,26.8621797 112.675049,27.4498291 C113.188398,28.0374785 113.850338,28.3312988 114.660889,28.3312988 C115.29582,28.3312988 115.910479,28.1320414 116.504883,27.7335205 C117.099287,27.3349996 117.734209,26.7102093 118.409668,25.8591309 L118.409668,25.8591309 Z M111.925293,24.3190918 C113.384285,23.6706511 114.50553,22.9479207 115.289062,22.1508789 C115.815921,21.6105116 116.241453,21.0296255 116.565674,20.4082031 C116.889894,19.7867807 117.052002,19.2261581 117.052002,18.7263184 C117.052002,18.0913868 116.761559,17.7739258 116.180664,17.7739258 C115.302567,17.7739258 114.414352,18.466261 113.515991,19.8509521 C112.617631,21.2356433 112.087403,22.7250083 111.925293,24.3190918 L111.925293,24.3190918 Z M131.601318,17.0241699 L129.696533,24.4406738 C129.493895,25.2512248 129.392578,25.8861468 129.392578,26.345459 C129.392578,26.7507344 129.480386,27.1019679 129.656006,27.3991699 C129.831625,27.6963719 130.047769,27.8449707 130.304443,27.8449707 C130.69621,27.8449707 131.344641,27.3654019 132.249756,26.40625 L132.533447,26.6899414 L132.310547,26.9533691 C131.59456,27.7774293 131.044069,28.3549381 130.659058,28.6859131 C130.274046,29.016888 129.939699,29.182373 129.656006,29.182373 C129.223712,29.182373 128.848838,28.9560976 128.531372,28.50354 C128.213906,28.0509824 128.055176,27.5275095 128.055176,26.9331055 C128.055176,26.5008116 128.217284,25.5214106 128.541504,23.994873 L128.703613,23.2248535 C128.203774,24.3866432 127.535079,25.501134 126.69751,26.5683594 C125.292555,28.3515714 123.948411,29.2431641 122.665039,29.2431641 C121.895016,29.2431641 121.287112,28.96623 120.841309,28.4123535 C120.395506,27.858477 120.172607,27.1154832 120.172607,26.1833496 C120.172607,24.9134865 120.533973,23.582852 121.256714,22.1914062 C121.979455,20.7999605 122.877802,19.6550745 123.951782,18.7567139 C125.025762,17.8583533 126.069331,17.4091797 127.08252,17.4091797 C128.149745,17.4091797 128.946775,17.8009401 129.473633,18.5844727 L129.696533,17.8144531 L131.601318,17.0241699 Z M129.270996,19.6179199 C129.108886,19.104571 128.835329,18.7026789 128.450317,18.4122314 C128.065306,18.121784 127.622887,17.9765625 127.123047,17.9765625 C126.528643,17.9765625 125.900475,18.2501193 125.238525,18.7972412 C124.576575,19.3443631 123.968671,20.1042432 123.414795,21.0769043 C122.982501,21.8469277 122.621136,22.6979934 122.330688,23.630127 C122.040241,24.5622605 121.89502,25.3322724 121.89502,25.9401855 C121.89502,26.6291538 122.026732,27.169513 122.290161,27.5612793 C122.55359,27.9530456 122.928464,28.1489258 123.414795,28.1489258 C124.036217,28.1489258 124.684648,27.8584827 125.360107,27.2775879 C126.035567,26.6966931 126.704261,25.8658908 127.366211,24.7851562 C127.771486,24.1637339 128.088947,23.5423208 128.318604,22.9208984 C128.54826,22.2994761 128.80493,21.4349014 129.088623,20.3271484 L129.270996,19.6179199 Z M137.781738,17.145752 L135.816162,24.987793 C135.640543,25.6902704 135.552734,26.2846655 135.552734,26.7709961 C135.552734,27.2438175 135.701333,27.6220689 135.998535,27.9057617 C136.295737,28.1894545 136.680743,28.3312988 137.153564,28.3312988 C138.301845,28.3312988 139.49739,27.3924248 140.740234,25.5146484 L140.821289,25.3930664 C140.848307,25.2579746 140.868571,25.1499027 140.88208,25.0688477 L142.158691,17.9765625 L144.144531,17.145752 L142.361328,23.8125 C142.064126,24.9067438 141.915527,25.7848274 141.915527,26.4467773 C141.915527,26.8790712 141.989827,27.2303046 142.138428,27.5004883 C142.287029,27.7706719 142.482909,27.9057617 142.726074,27.9057617 C143.144859,27.9057617 143.813553,27.4059295 144.732178,26.40625 L145.056396,26.6899414 L144.85376,26.9128418 C144.083736,27.817957 143.516359,28.4292383 143.151611,28.7467041 C142.786863,29.0641699 142.449139,29.2229004 142.138428,29.2229004 C141.719643,29.2229004 141.365032,29.010134 141.074585,28.5845947 C140.784138,28.1590555 140.638916,27.628828 140.638916,26.9938965 C140.638916,26.7912588 140.645671,26.602133 140.65918,26.4265137 C139.254225,28.2907808 137.8628,29.2229004 136.484863,29.2229004 C135.795895,29.2229004 135.245404,29.0236429 134.833374,28.6251221 C134.421344,28.2266012 134.215332,27.6963738 134.215332,27.0344238 C134.215332,26.5210749 134.289631,25.8929074 134.438232,25.1499023 L135.816162,17.9765625 L137.781738,17.145752 Z M150.04126,18.1791992 L148.501221,24.927002 C148.339111,25.670007 148.258057,26.1968572 148.258057,26.5075684 C148.258057,26.9938989 148.372883,27.3856593 148.602539,27.6828613 C148.832195,27.9800633 149.136147,28.1286621 149.514404,28.1286621 C149.879152,28.1286621 150.213499,28.0239675 150.517456,27.8145752 C150.821413,27.6051829 151.284095,27.1695183 151.905518,26.5075684 L152.148682,26.2644043 L152.452637,26.5683594 C151.655595,27.5410205 150.990278,28.2266012 150.456665,28.6251221 C149.923052,29.0236429 149.399579,29.2229004 148.88623,29.2229004 C148.23779,29.2229004 147.721071,29.010134 147.33606,28.5845947 C146.951048,28.1590555 146.758545,27.6018101 146.758545,26.9128418 C146.758545,26.3994929 146.859862,25.656499 147.0625,24.6838379 L148.379639,18.1791992 L146.434326,18.1791992 L146.576172,17.4902344 L148.521484,17.4902344 L149.65625,12.019043 L151.601562,11.2490234 L150.183105,17.4902344 L153.46582,17.4902344 L153.323975,18.1791992 L150.04126,18.1791992 Z M151.804199,36.1936035 L152.797119,34.8562012 C153.580652,35.6937705 154.46549,36.1125488 155.45166,36.1125488 C156.491867,36.1125488 157.329424,35.700525 157.964355,34.8764648 C158.599287,34.0524047 159.119383,32.7015068 159.524658,30.8237305 L160.456787,26.6291504 C158.970777,28.3718349 157.626634,29.2431641 156.424316,29.2431641 C155.721839,29.2431641 155.171348,29.0270204 154.772827,28.5947266 C154.374306,28.1624327 154.175049,27.5815466 154.175049,26.8520508 C154.175049,26.3657202 154.235839,25.8321155 154.357422,25.2512207 L155.735352,17.9765625 L157.700928,17.145752 L155.735352,25.3120117 C155.573241,25.9739616 155.492188,26.4670394 155.492188,26.7912598 C155.492188,27.250572 155.630655,27.6254461 155.907593,27.9158936 C156.184531,28.206341 156.552651,28.3515625 157.011963,28.3515625 C157.511803,28.3515625 158.062294,28.1320416 158.663452,27.6929932 C159.264611,27.2539447 159.936682,26.595382 160.679688,25.7172852 L162.422363,17.9765625 L164.327148,17.145752 L161.368652,29.060791 C161.017414,30.4927643 160.683066,31.6140096 160.365601,32.4245605 C160.048135,33.2351115 159.680015,33.9105604 159.26123,34.4509277 C157.937331,36.1530847 156.323008,37.0041504 154.418213,37.0041504 C153.31046,37.0041504 152.439131,36.7339708 151.804199,36.1936035 L151.804199,36.1936035 Z M175.404297,0.448486328 L170.074951,23.8125 L169.892578,24.6027832 C169.716959,25.3457882 169.62915,25.9739558 169.62915,26.4873047 C169.62915,26.9060893 169.706827,27.2471911 169.862183,27.5106201 C170.017538,27.7740492 170.210041,27.9057617 170.439697,27.9057617 C170.858482,27.9057617 171.527176,27.4059295 172.445801,26.40625 L172.77002,26.6899414 L172.567383,26.9128418 C171.797359,27.817957 171.229982,28.4292383 170.865234,28.7467041 C170.500486,29.0641699 170.162762,29.2229004 169.852051,29.2229004 C169.446775,29.2229004 169.092165,28.996625 168.788208,28.5440674 C168.484251,28.0915098 168.332275,27.5747913 168.332275,26.9938965 C168.332275,26.588621 168.420084,25.9469445 168.595703,25.0688477 L173.276611,1.48193359 L175.404297,0.448486328 Z M173.783203,25.109375 C173.783203,23.8935486 174.110796,22.6811177 174.765991,21.4720459 C175.421187,20.2629741 176.268875,19.2801958 177.309082,18.5236816 C178.349289,17.7671674 179.409744,17.388916 180.490479,17.388916 C181.62525,17.388916 182.540483,17.7637902 183.236206,18.5135498 C183.931929,19.2633094 184.279785,20.2325787 184.279785,21.4213867 C184.279785,22.7182682 183.958947,23.9746033 183.317261,25.1904297 C182.675575,26.4062561 181.831263,27.4025433 180.784302,28.1793213 C179.73734,28.9560993 178.680262,29.3444824 177.613037,29.3444824 C176.464757,29.3444824 175.539392,28.9560993 174.836914,28.1793213 C174.134437,27.4025433 173.783203,26.3792381 173.783203,25.109375 L173.783203,25.109375 Z M182.456055,20.6513672 C182.456055,19.8408163 182.256797,19.1721218 181.858276,18.6452637 C181.459755,18.1184056 180.949792,17.8549805 180.328369,17.8549805 C179.760983,17.8549805 179.217247,18.0373517 178.697144,18.4020996 C178.17704,18.7668475 177.700849,19.3004522 177.268555,20.0029297 C176.782224,20.8134806 176.380332,21.7591092 176.062866,22.8398438 C175.7454,23.9205783 175.58667,24.8797159 175.58667,25.7172852 C175.58667,26.7169646 175.78255,27.4869765 176.174316,28.0273438 C176.566083,28.567711 177.126705,28.8378906 177.856201,28.8378906 C179.0315,28.8378906 180.064937,28.0205974 180.956543,26.3859863 C181.415855,25.548417 181.780598,24.609543 182.050781,23.5693359 C182.320965,22.5291289 182.456055,21.5564824 182.456055,20.6513672 L182.456055,20.6513672 Z M190.054932,17.145752 L188.089355,24.987793 C187.913736,25.6902704 187.825928,26.2846655 187.825928,26.7709961 C187.825928,27.2438175 187.974527,27.6220689 188.271729,27.9057617 C188.568931,28.1894545 188.953936,28.3312988 189.426758,28.3312988 C190.575038,28.3312988 191.770583,27.3924248 193.013428,25.5146484 L193.094482,25.3930664 C193.121501,25.2579746 193.141764,25.1499027 193.155273,25.0688477 L194.431885,17.9765625 L196.417725,17.145752 L194.634521,23.8125 C194.337319,24.9067438 194.188721,25.7848274 194.188721,26.4467773 C194.188721,26.8790712 194.26302,27.2303046 194.411621,27.5004883 C194.560222,27.7706719 194.756102,27.9057617 194.999268,27.9057617 C195.418052,27.9057617 196.086747,27.4059295 197.005371,26.40625 L197.32959,26.6899414 L197.126953,26.9128418 C196.35693,27.817957 195.789553,28.4292383 195.424805,28.7467041 C195.060057,29.0641699 194.722332,29.2229004 194.411621,29.2229004 C193.992836,29.2229004 193.638226,29.010134 193.347778,28.5845947 C193.057331,28.1590555 192.912109,27.628828 192.912109,26.9938965 C192.912109,26.7912588 192.918864,26.602133 192.932373,26.4265137 C191.527418,28.2907808 190.135993,29.2229004 188.758057,29.2229004 C188.069088,29.2229004 187.518597,29.0236429 187.106567,28.6251221 C186.694537,28.2266012 186.488525,27.6963738 186.488525,27.0344238 C186.488525,26.5210749 186.562825,25.8929074 186.711426,25.1499023 L188.089355,17.9765625 L190.054932,17.145752 Z M198.646729,29.2026367 L200.794678,17.9765625 L202.719727,17.145752 L200.977051,24.5825195 C202.098313,22.2184127 203.212804,20.4217184 204.320557,19.1923828 C205.42831,17.9630472 206.488764,17.3483887 207.501953,17.3483887 C208.001793,17.3483887 208.407062,17.5138737 208.717773,17.8448486 C209.028485,18.1758236 209.183838,18.6182427 209.183838,19.1721191 C209.183838,19.4828303 209.109539,19.9218722 208.960938,20.4892578 L208.758301,21.340332 L208.150391,23.8125 L207.947754,24.6027832 C207.745116,25.4133341 207.643799,26.0347472 207.643799,26.467041 C207.643799,26.8993348 207.718098,27.2471911 207.866699,27.5106201 C208.0153,27.7740492 208.21118,27.9057617 208.454346,27.9057617 C208.87313,27.9057617 209.541825,27.4059295 210.460449,26.40625 L210.784668,26.6899414 L210.582031,26.9128418 C209.812008,27.817957 209.244631,28.4292383 208.879883,28.7467041 C208.515135,29.0641699 208.17741,29.2229004 207.866699,29.2229004 C207.447915,29.2229004 207.093304,29.010134 206.802856,28.5845947 C206.512409,28.1590555 206.367188,27.628828 206.367188,26.9938965 C206.367188,26.5616027 206.448241,25.9199261 206.610352,25.0688477 L207.400635,20.7729492 C207.508708,20.0974901 207.562744,19.6246758 207.562744,19.3544922 C207.562744,19.0707994 207.488445,18.8546557 207.339844,18.7060547 C207.191243,18.5574537 206.988608,18.4831543 206.731934,18.4831543 C205.7998,18.4831543 204.651537,19.4828188 203.287109,21.4821777 C202.625159,22.4413297 202.078046,23.3903355 201.645752,24.3292236 C201.213458,25.2681118 200.727135,26.5683511 200.186768,28.2299805 L200.004395,28.7770996 L198.646729,29.2026367 Z M223.226562,17.0241699 L220.126221,29.3647461 C219.81551,30.6886459 219.541953,31.6612925 219.305542,32.2827148 C219.069131,32.9041372 218.782065,33.4715144 218.444336,33.9848633 C217.809404,34.9575244 217.036015,35.7038955 216.124146,36.223999 C215.212276,36.7441025 214.229497,37.0041504 213.175781,37.0041504 C212.216629,37.0041504 211.372318,36.7339708 210.642822,36.1936035 L211.67627,34.8562012 C212.554366,35.6937705 213.425696,36.1125488 214.290283,36.1125488 C214.84416,36.1125488 215.404782,35.9369321 215.972168,35.5856934 C216.539554,35.2344546 216.958332,34.8021673 217.228516,34.2888184 C217.579754,33.667396 217.944497,32.5393962 218.322754,30.9047852 L219.883057,24.2177734 C218.072826,27.595069 216.235605,29.2836914 214.371338,29.2836914 C213.614824,29.2836914 213.003542,28.9966256 212.537476,28.4224854 C212.071409,27.8483451 211.838379,27.115483 211.838379,26.223877 C211.838379,24.9540138 212.196367,23.6301338 212.912354,22.2521973 C213.62834,20.8742607 214.530065,19.7293747 215.617554,18.8175049 C216.705043,17.9056351 217.762121,17.449707 218.788818,17.449707 C219.74797,17.449707 220.545,17.807695 221.179932,18.5236816 L221.362305,17.8144531 L223.226562,17.0241699 Z M220.957031,19.5368652 C220.430173,18.5236766 219.734461,18.0170898 218.869873,18.0170898 C217.964758,18.0170898 217.073165,18.5169221 216.195068,19.5166016 C215.479082,20.3541709 214.8678,21.404494 214.361206,22.6676025 C213.854612,23.9307111 213.601318,25.0620881 213.601318,26.0617676 C213.601318,26.7372267 213.74654,27.2674541 214.036987,27.6524658 C214.327435,28.0374775 214.736081,28.2299805 215.262939,28.2299805 C215.803307,28.2299805 216.401079,27.9327829 217.056274,27.3383789 C217.71147,26.7439749 218.363278,25.9064182 219.011719,24.8256836 C219.754724,23.596348 220.328855,22.1373782 220.734131,20.4487305 L220.957031,19.5368652 Z M232.750488,25.8591309 L233.115234,26.1630859 C232.277665,27.2708389 231.460372,28.0712459 230.66333,28.5643311 C229.866288,29.0574162 229.008468,29.3039551 228.089844,29.3039551 C226.9956,29.3039551 226.117516,28.9392126 225.455566,28.2097168 C224.793616,27.480221 224.462646,26.5143289 224.462646,25.3120117 C224.462646,24.0961853 224.783485,22.8634909 225.425171,21.6138916 C226.066857,20.3642923 226.870641,19.3308553 227.836548,18.5135498 C228.802454,17.6962443 229.758215,17.2875977 230.703857,17.2875977 C231.257734,17.2875977 231.713662,17.4497054 232.071655,17.7739258 C232.429649,18.0981462 232.608643,18.5169245 232.608643,19.0302734 C232.608643,20.0704805 232.041265,21.1106719 230.906494,22.1508789 C229.771723,23.1910859 228.224945,24.0759241 226.266113,24.8054199 C226.252604,24.9134934 226.24585,25.0350742 226.24585,25.170166 C226.24585,26.1022996 226.50252,26.8621797 227.015869,27.4498291 C227.529218,28.0374785 228.191158,28.3312988 229.001709,28.3312988 C229.636641,28.3312988 230.251299,28.1320414 230.845703,27.7335205 C231.440107,27.3349996 232.075029,26.7102093 232.750488,25.8591309 L232.750488,25.8591309 Z M226.266113,24.3190918 C227.725105,23.6706511 228.84635,22.9479207 229.629883,22.1508789 C230.156741,21.6105116 230.582274,21.0296255 230.906494,20.4082031 C231.230715,19.7867807 231.392822,19.2261581 231.392822,18.7263184 C231.392822,18.0913868 231.102379,17.7739258 230.521484,17.7739258 C229.643388,17.7739258 228.755172,18.466261 227.856812,19.8509521 C226.958451,21.2356433 226.428223,22.7250083 226.266113,24.3190918 L226.266113,24.3190918 Z"></path>
            </g>
            <path d="M105.437949,101.128967 C105.325767,100.039016 105.255654,98.9634236 105.227609,97.9021562 C105.199564,96.8408888 105.185541,95.7652961 105.185541,94.6753458 L105.017269,94.6753458 C104.400269,95.7652961 103.615008,96.7691826 102.661463,97.6870355 C101.707917,98.6048884 100.642206,99.3936564 99.4642969,100.053363 C98.2863878,100.71307 97.0383838,101.229354 95.7202474,101.602232 C94.402111,101.97511 93.0980169,102.161546 91.807926,102.161546 C86.7597442,102.161546 83.0297547,100.799128 80.6178456,98.0742527 C78.2059365,95.349377 77,91.462902 77,86.4147111 L77,60.8583727 L82.5529723,60.8583727 L82.5529723,83.1448766 C82.5529723,85.382143 82.7212425,87.3612336 83.0577879,89.0822077 C83.3943334,90.8031819 83.9692566,92.2516467 84.7825748,93.4276457 C85.5958929,94.6036448 86.6896493,95.4928014 88.0638765,96.0951424 C89.4381038,96.6974833 91.1628734,96.9986493 93.2382371,96.9986493 C93.5186916,96.9986493 94.3039526,96.8839194 95.5940435,96.6544562 C96.8841344,96.4249929 98.2443185,95.7939785 99.6746367,94.7613941 C101.104955,93.7288096 102.381004,92.179956 103.502822,90.1147871 C104.62464,88.0496181 105.185541,85.1813708 105.185541,81.5099593 L105.185541,60.8583727 L110.738513,60.8583727 L110.738513,92.265994 C110.738513,93.3559443 110.780581,94.732703 110.864717,96.3963113 C110.948854,98.0599197 111.047011,99.6374557 111.159193,101.128967 L105.437949,101.128967 Z M123.031992,60.8583727 C123.144174,61.948323 123.214287,63.0239157 123.242332,64.0851831 C123.270378,65.1464505 123.2844,66.2220432 123.2844,67.3119935 L123.452672,67.3119935 C124.069672,66.2220432 124.854933,65.2181566 125.808478,64.3003038 C126.762024,63.3824509 127.827735,62.5936829 129.005644,61.9339761 C130.183553,61.2742694 131.431557,60.7579849 132.749694,60.3851071 C134.06783,60.0122294 135.371924,59.8257933 136.662015,59.8257933 C141.710197,59.8257933 145.440186,61.1882108 147.852096,63.9130865 C150.264005,66.6379623 151.469941,70.5244373 151.469941,75.5726281 L151.469941,101.128967 L145.916969,101.128967 L145.916969,78.8424627 C145.916969,74.3679299 145.159753,70.9403744 143.645298,68.5596935 C142.130844,66.1790126 139.32634,64.98869 135.231704,64.98869 C134.95125,64.98869 134.165989,65.1034199 132.875898,65.3328831 C131.585807,65.5623463 130.225623,66.1933607 128.795304,67.2259452 C127.364986,68.2585297 126.088937,69.8073832 124.967119,71.8725522 C123.845301,73.9377212 123.2844,76.8059684 123.2844,80.47738 L123.2844,101.128967 L117.731428,101.128967 L117.731428,69.7213453 C117.731428,68.631395 117.68936,67.2546363 117.605224,65.5910279 C117.521088,63.9274196 117.42293,62.3498836 117.310748,60.8583727 L123.031992,60.8583727 Z M175.458316,66.0212693 L164.099964,66.0212693 L164.099964,89.7705939 C164.099964,91.2621049 164.240189,92.48111 164.520644,93.4276457 C164.801098,94.3741815 165.193729,95.1055846 165.698547,95.6218768 C166.203365,96.1381691 166.806333,96.4967 167.50747,96.6974803 C168.208606,96.8982606 168.979844,96.9986493 169.821208,96.9986493 C170.774754,96.9986493 171.75633,96.8552369 172.765966,96.5684079 C173.775602,96.2815789 174.701089,95.9087067 175.542452,95.4497803 L175.79486,100.698725 C173.719496,101.673944 171.223488,102.161546 168.306761,102.161546 C167.241034,102.161546 166.133255,102.018134 164.983391,101.731305 C163.833528,101.444476 162.781839,100.899509 161.828293,100.096387 C160.874748,99.293266 160.089487,98.203332 159.472487,96.8265527 C158.855487,95.4497734 158.546992,93.6427776 158.546992,91.4055112 L158.546992,66.0212693 L158.546992,60.8583727 L158.546992,49.5 L164.099964,49.5 L164.099964,60.8583727 L175.458316,60.8583727 L175.458316,66.0212693 Z M182.619503,73.4214212 C182.619503,71.6430812 182.577435,69.8360855 182.493299,68.0003797 C182.409163,66.1646739 182.33905,63.7840287 182.282959,60.8583727 L187.751795,60.8583727 L187.751795,68.3445728 L187.920067,68.3445728 C188.312704,67.2546225 188.873604,66.2077123 189.602786,65.2038107 C190.331968,64.1999091 191.215386,63.2964112 192.253068,62.4932899 C193.29075,61.6901687 194.496687,61.044813 195.870914,60.5572037 C197.245141,60.0695943 198.801641,59.8257933 200.540459,59.8257933 C202.111004,59.8257933 203.485211,59.9978882 204.66312,60.342083 L203.569353,65.935221 C202.840171,65.648392 201.77446,65.5049796 200.372187,65.5049796 C198.240732,65.5049796 196.417805,65.9208755 194.903351,66.7526797 C193.388896,67.5844838 192.126869,68.6457353 191.117233,69.9364659 C190.107597,71.2271966 189.364403,72.6182965 188.887631,74.1098074 C188.410858,75.6013183 188.172475,77.035442 188.172475,78.4122213 L188.172475,101.128967 L182.619503,101.128967 L182.619503,73.4214212 Z M236.887186,76.4331109 L236.887186,75.4005316 C236.887186,68.4592691 233.521782,64.98869 226.790873,64.98869 C222.191418,64.98869 218.180979,66.566226 214.759433,69.7213453 L211.393995,65.6770762 C215.095995,61.7762014 220.648912,59.8257933 228.052912,59.8257933 C229.960003,59.8257933 231.796953,60.112618 233.563816,60.6862761 C235.33068,61.2599341 236.859134,62.1347496 238.149225,63.3107486 C239.439316,64.4867476 240.476983,65.9638949 241.262255,67.7422349 C242.047528,69.5205748 242.440158,71.6430778 242.440158,74.1098074 L242.440158,92.0938974 C242.440158,93.6427742 242.510271,95.2633339 242.650498,96.9556251 C242.790726,98.6479164 242.944973,100.039016 243.113246,101.128967 L237.728546,101.128967 C237.560273,100.153748 237.43407,99.0924964 237.349934,97.9451803 C237.265798,96.7978642 237.22373,95.6792478 237.22373,94.5892975 L237.055458,94.5892975 C235.428822,97.2854903 233.507737,99.2215572 231.292146,100.397556 C229.076555,101.573555 226.370209,102.161546 223.173027,102.161546 C221.434209,102.161546 219.751507,101.917745 218.124871,101.430136 C216.498234,100.942526 215.053915,100.196782 213.79187,99.1928804 C212.529824,98.1889788 211.520203,96.9556324 210.762976,95.4928044 C210.005749,94.0299764 209.627141,92.3233693 209.627141,90.3729319 C209.627141,87.103081 210.454469,84.5359997 212.109151,82.671611 C213.763833,80.8072224 215.839165,79.4161225 218.335211,78.4982696 C220.831256,77.5804167 223.495534,77.0067672 226.328125,76.777304 C229.160716,76.5478408 231.754882,76.4331109 234.1107,76.4331109 L236.887186,76.4331109 Z M234.026564,81.0797179 C232.624291,81.0797179 230.871477,81.1514241 228.768068,81.2948386 C226.664659,81.4382531 224.645416,81.7824428 222.71028,82.3274179 C220.775143,82.8723931 219.120486,83.718526 217.746259,84.8658421 C216.372032,86.0131582 215.684929,87.5906942 215.684929,89.5984974 C215.684929,90.9179109 215.951356,92.0508686 216.48422,92.9974044 C217.017084,93.9439401 217.732232,94.7183669 218.629687,95.3207079 C219.527141,95.9230488 220.52274,96.3532859 221.616513,96.611432 C222.710285,96.8695781 223.818064,96.9986493 224.939882,96.9986493 C226.959155,96.9986493 228.71197,96.6544596 230.198379,95.9660699 C231.684788,95.2776803 232.932792,94.3454999 233.942428,93.1695009 C234.952065,91.9935019 235.695258,90.6167432 236.172031,89.0391836 C236.648803,87.4616239 236.887186,85.7836993 236.887186,84.0053593 L236.887186,81.0797179 L234.026564,81.0797179 Z M250.106161,60.8583727 L255.659133,60.8583727 L255.659133,67.5701383 L255.827405,67.5701383 C256.724859,66.193359 257.790571,65.0173776 259.024571,64.0421589 C260.258571,63.0669402 261.548642,62.263831 262.894824,61.6328072 C264.241006,61.0017833 265.629235,60.5428637 267.059553,60.2560347 C268.489871,59.9692057 269.850056,59.8257933 271.140146,59.8257933 C274.225146,59.8257933 277.043672,60.3564191 279.595809,61.4176865 C282.147945,62.4789539 284.34948,63.9561012 286.20048,65.8491728 C288.05148,67.7422443 289.4958,69.9794772 290.533481,72.5609384 C291.571163,75.1423997 292.089996,77.9532819 292.089996,80.9936696 C292.089996,84.0340573 291.571163,86.8449396 290.533481,89.4264008 C289.4958,92.0078621 288.05148,94.2450949 286.20048,96.1381665 C284.34948,98.0312381 282.147945,99.5083854 279.595809,100.569653 C277.043672,101.63092 274.225146,102.161546 271.140146,102.161546 C269.850056,102.161546 268.489871,102.018134 267.059553,101.731305 C265.629235,101.444476 264.241006,100.985556 262.894824,100.354532 C261.548642,99.7235082 260.258571,98.920399 259.024571,97.9451803 C257.790571,96.9699616 256.724859,95.7939803 255.827405,94.4172009 L255.659133,94.4172009 L255.659133,125.910871 L250.106161,125.910871 L250.106161,60.8583727 Z M286.032208,80.9936696 C286.032208,78.7564032 285.681645,76.6625827 284.980509,74.7121454 C284.279373,72.761708 283.283774,71.0694421 281.993683,69.635297 C280.703592,68.2011518 279.147093,67.0681942 277.324138,66.23639 C275.501184,65.4045858 273.439874,64.98869 271.140146,64.98869 C268.840419,64.98869 266.737042,65.4045858 264.829951,66.23639 C262.92286,67.0681942 261.268203,68.2011518 259.86593,69.635297 C258.463657,71.0694421 257.369901,72.761708 256.584628,74.7121454 C255.799356,76.6625827 255.406725,78.7564032 255.406725,80.9936696 C255.406725,83.230936 255.799356,85.3247565 256.584628,87.2751939 C257.369901,89.2256313 258.463657,90.9178971 259.86593,92.3520423 C261.268203,93.7861874 262.92286,94.9191451 264.829951,95.7509492 C266.737042,96.5827534 268.840419,96.9986493 271.140146,96.9986493 C273.439874,96.9986493 275.501184,96.5827534 277.324138,95.7509492 C279.147093,94.9191451 280.703592,93.7861874 281.993683,92.3520423 C283.283774,90.9178971 284.279373,89.2256313 284.980509,87.2751939 C285.681645,85.3247565 286.032208,83.230936 286.032208,80.9936696 Z" id="untrap" sketch:type="MSShapeGroup"></path>
            <path d="M19.77,78.94 C21.9233441,83.1333543 25.0966457,86.334989 29.29,88.545 C33.4833543,90.7550111 37.9033101,91.86 42.55,91.86 C44.7033441,91.86 46.8566559,91.5200034 49.01,90.84 C51.1633441,90.1599966 53.0899915,89.1966729 54.79,87.95 C56.4900085,86.7033271 57.8783279,85.2016755 58.955,83.445 C59.2323607,82.9924641 62.61392,75.0977037 55.1161707,69.7893694 C51.9200762,67.5265653 47.9537256,67.7811106 45.5114153,68.318918 C43.0691049,68.8567255 38.7704115,69.1380101 36.7245958,68.8567255 C28.7451184,67.7596061 24.3162322,63.790033 24.134033,63.6572283 C19.2473806,60.0953566 16.8106696,55.1829316 15.8593748,52.8076189 C14.074894,48.3519025 13.99,43.4213829 13.99,41.03 C13.99,39.1154368 15.5461423,29.7778318 22.3815916,23.7663574 C30.4895802,16.6357411 39.1687009,17.048584 40.8500002,17.048584 C44.1850676,17.048584 53.2630479,17.747803 60.5700014,27.2338867 C63.7376185,31.3461726 66.0887741,38.0098167 66.0258157,43.3182314 C65.9435439,50.2550905 63.6090448,53.9519671 63.6090448,53.9519671 C63.6090448,53.9519671 61.2798838,52.1565118 58.9549997,51.0000017 C56.6301156,49.8434917 54.5407121,49.4409388 54.5407121,49.4409388 C54.5407121,49.4409388 55.8981386,45.6361951 55.9790056,43.5982664 C56.1717486,38.7409496 54.0161283,32.621728 48.0000017,29.1640623 C44.4208087,27.1069825 37.9211423,25.2834471 31.0275877,29.7904051 C27.770276,31.9200128 25.3236048,35.478143 24.4998777,39.0889891 C24.0593872,41.0198999 23.3955076,44.6012781 25.2324216,49.1190203 C27.0693357,53.6367624 30.5283035,56.0971424 32.2614744,57.0000017 C34.8746954,58.3613048 37.7012918,59.3343523 42.1179197,58.8656023 C44.1766251,58.6471057 51.9440324,56.005739 60.9920061,61.2308367 C70.0399797,66.4559343 70.77,73.8862173 70.77,76.73 C70.77,80.8100204 70.0050077,84.3516517 68.475,87.355 C66.9449924,90.3583484 64.8483466,92.8799898 62.185,94.92 C59.5216534,96.9600102 56.490017,98.4899949 53.09,99.51 C49.689983,100.530005 46.1200187,101.04 42.38,101.04 C35.579966,101.04 29.375028,99.7366797 23.765,97.13 C18.1549719,94.5233203 13.8200153,90.5000272 10.76,85.06 L19.77,78.94 Z" id="s" sketch:type="MSShapeGroup"></path>
            <g id="Group" sketch:type="MSShapeGroup">
                <rect id="Rectangle-5" transform="translate(77.000000, 38.000000) rotate(352.000000) translate(-77.000000, -38.000000) " x="69.5" y="35.5" width="15" height="5" rx="8"></rect>
                <rect id="Rectangle-12" transform="translate(28.131328, 7.946373) rotate(-290.000000) translate(-28.131328, -7.946373) " x="20.6313275" y="5.44637292" width="15" height="5" rx="8"></rect>
                <rect id="Rectangle-14" transform="translate(8.577581, 60.041562) rotate(-209.000000) translate(-8.577581, -60.041562) " x="1.07758142" y="57.5415625" width="15" height="5" rx="8"></rect>
                <rect id="Rectangle-11" transform="translate(59.868558, 15.849118) rotate(-56.000000) translate(-59.868558, -15.849118) " x="54.8685584" y="13.3491179" width="10" height="5" rx="8"></rect>
                <rect id="Rectangle-13" transform="translate(9.446487, 30.879732) rotate(200.000000) translate(-9.446487, -30.879732) " x="4.44648654" y="28.3797319" width="10" height="5" rx="8"></rect>
            </g>
        </g>
    </g>
</svg>