<?xml version="1.0" encoding="UTF-8" standalone="no"?>
<svg width="292px" height="134px" viewBox="0 0 292 134" version="1.1" xmlns="http://www.w3.org/2000/svg" xmlns:xlink="http://www.w3.org/1999/xlink" xmlns:sketch="http://www.bohemiancoding.com/sketch/ns">
    <!-- Generator: Sketch 3.3.2 (12043) - http://www.bohemiancoding.com/sketch -->
    <title>suntrap white</title>
    <desc>Created with Sketch.</desc>
    <defs></defs>
    <g id="Page-1" stroke="none" stroke-width="1" fill="none" fill-rule="evenodd" sketch:type="MSPage">
        <g id="suntrap-white" sketch:type="MSLayerGroup" transform="translate(-1.000000, 0.000000)" fill="#FFFFFF">
            <path d="M14.3232422,115.179199 L12.7832031,121.927002 C12.6210929,122.670007 12.5400391,123.196857 12.5400391,123.507568 C12.5400391,123.993899 12.6548654,124.385659 12.8845215,124.682861 C13.1141776,124.980063 13.4181296,125.128662 13.7963867,125.128662 C14.1611346,125.128662 14.4954819,125.023968 14.7994385,124.814575 C15.1033951,124.605183 15.5660776,124.169518 16.1875,123.507568 L16.4306641,123.264404 L16.7346191,123.568359 C15.9375774,124.54102 15.2722602,125.226601 14.7386475,125.625122 C14.2050348,126.023643 13.6815618,126.2229 13.1682129,126.2229 C12.5197721,126.2229 12.0030537,126.010134 11.618042,125.584595 C11.2330303,125.159055 11.0405273,124.60181 11.0405273,123.912842 C11.0405273,123.399493 11.1418447,122.656499 11.3444824,121.683838 L12.6616211,115.179199 L10.7163086,115.179199 L10.8581543,114.490234 L12.8034668,114.490234 L13.9382324,109.019043 L15.8835449,108.249023 L14.4650879,114.490234 L17.7478027,114.490234 L17.605957,115.179199 L14.3232422,115.179199 Z M29.3183594,114.02417 L27.4135742,121.440674 C27.2109365,122.251225 27.1096191,122.886147 27.1096191,123.345459 C27.1096191,123.750734 27.1974275,124.101968 27.3730469,124.39917 C27.5486662,124.696372 27.7648099,124.844971 28.0214844,124.844971 C28.4132507,124.844971 29.0616817,124.365402 29.9667969,123.40625 L30.2504883,123.689941 L30.0275879,123.953369 C29.3116012,124.777429 28.7611103,125.354938 28.3760986,125.685913 C27.9910869,126.016888 27.6567397,126.182373 27.3730469,126.182373 C26.940753,126.182373 26.5658789,125.956098 26.2484131,125.50354 C25.9309473,125.050982 25.7722168,124.527509 25.7722168,123.933105 C25.7722168,123.500812 25.9343246,122.521411 26.2585449,120.994873 L26.4206543,120.224854 C25.9208146,121.386643 25.2521201,122.501134 24.4145508,123.568359 C23.0095958,125.351571 21.6654524,126.243164 20.3820801,126.243164 C19.6120567,126.243164 19.0041526,125.96623 18.5583496,125.412354 C18.1125466,124.858477 17.8896484,124.115483 17.8896484,123.18335 C17.8896484,121.913486 18.2510136,120.582852 18.9737549,119.191406 C19.6964961,117.79996 20.5948433,116.655074 21.6688232,115.756714 C22.7428032,114.858353 23.7863719,114.40918 24.7995605,114.40918 C25.8667859,114.40918 26.6638157,114.80094 27.1906738,115.584473 L27.4135742,114.814453 L29.3183594,114.02417 Z M26.9880371,116.61792 C26.8259269,116.104571 26.5523701,115.702679 26.1673584,115.412231 C25.7823467,115.121784 25.3399276,114.976562 24.8400879,114.976562 C24.2456839,114.976562 23.6175163,115.250119 22.9555664,115.797241 C22.2936165,116.344363 21.6857124,117.104243 21.1318359,118.076904 C20.6995421,118.846928 20.3381769,119.697993 20.0477295,120.630127 C19.7572821,121.562261 19.6120605,122.332272 19.6120605,122.940186 C19.6120605,123.629154 19.7437731,124.169513 20.0072021,124.561279 C20.2706312,124.953046 20.6455054,125.148926 21.1318359,125.148926 C21.7532583,125.148926 22.4016893,124.858483 23.0771484,124.277588 C23.7526075,123.696693 24.421302,122.865891 25.083252,121.785156 C25.4885274,121.163734 25.8059884,120.542321 26.0356445,119.920898 C26.2653006,119.299476 26.5219712,118.434901 26.8056641,117.327148 L26.9880371,116.61792 Z M31.5878906,126.202637 L33.7358398,114.976562 L35.6608887,114.145752 L33.9182129,121.58252 C35.039475,119.218413 36.1539658,117.421718 37.2617188,116.192383 C38.3694717,114.963047 39.4299266,114.348389 40.4431152,114.348389 C40.942955,114.348389 41.3482244,114.513874 41.6589355,114.844849 C41.9696467,115.175824 42.125,115.618243 42.125,116.172119 C42.125,116.48283 42.0507006,116.921872 41.9020996,117.489258 L41.6994629,118.340332 L41.0915527,120.8125 L40.888916,121.602783 C40.6862783,122.413334 40.5849609,123.034747 40.5849609,123.467041 C40.5849609,123.899335 40.6592603,124.247191 40.8078613,124.51062 C40.9564623,124.774049 41.1523425,124.905762 41.3955078,124.905762 C41.8142925,124.905762 42.4829869,124.405929 43.4016113,123.40625 L43.7258301,123.689941 L43.5231934,123.912842 C42.75317,124.817957 42.1857928,125.429238 41.8210449,125.746704 C41.456297,126.06417 41.1185725,126.2229 40.8078613,126.2229 C40.3890767,126.2229 40.034466,126.010134 39.7440186,125.584595 C39.4535711,125.159055 39.3083496,124.628828 39.3083496,123.993896 C39.3083496,123.561603 39.3894035,122.919926 39.5515137,122.068848 L40.3417969,117.772949 C40.4498703,117.09749 40.5039062,116.624676 40.5039062,116.354492 C40.5039062,116.070799 40.4296069,115.854656 40.2810059,115.706055 C40.1324049,115.557454 39.9297702,115.483154 39.6730957,115.483154 C38.7409621,115.483154 37.5926989,116.482819 36.2282715,118.482178 C35.5663216,119.44133 35.0192079,120.390335 34.5869141,121.329224 C34.1546202,122.268112 33.668297,123.568351 33.1279297,125.22998 L32.9455566,125.7771 L31.5878906,126.202637 Z M45.0429688,126.202637 L47.190918,114.976562 L49.1159668,114.145752 L47.373291,121.58252 C48.4945531,119.218413 49.6090439,117.421718 50.7167969,116.192383 C51.8245498,114.963047 52.8850047,114.348389 53.8981934,114.348389 C54.3980331,114.348389 54.8033025,114.513874 55.1140137,114.844849 C55.4247249,115.175824 55.5800781,115.618243 55.5800781,116.172119 C55.5800781,116.48283 55.5057787,116.921872 55.3571777,117.489258 L55.154541,118.340332 L54.5466309,120.8125 L54.3439941,121.602783 C54.1413564,122.413334 54.0400391,123.034747 54.0400391,123.467041 C54.0400391,123.899335 54.1143384,124.247191 54.2629395,124.51062 C54.4115405,124.774049 54.6074207,124.905762 54.8505859,124.905762 C55.2693706,124.905762 55.9380651,124.405929 56.8566895,123.40625 L57.1809082,123.689941 L56.9782715,123.912842 C56.2082481,124.817957 55.640871,125.429238 55.276123,125.746704 C54.9113751,126.06417 54.5736506,126.2229 54.2629395,126.2229 C53.8441548,126.2229 53.4895441,126.010134 53.1990967,125.584595 C52.9086493,125.159055 52.7634277,124.628828 52.7634277,123.993896 C52.7634277,123.561603 52.8444816,122.919926 53.0065918,122.068848 L53.796875,117.772949 C53.9049485,117.09749 53.9589844,116.624676 53.9589844,116.354492 C53.9589844,116.070799 53.884685,115.854656 53.736084,115.706055 C53.587483,115.557454 53.3848483,115.483154 53.1281738,115.483154 C52.1960403,115.483154 51.047777,116.482819 49.6833496,118.482178 C49.0213997,119.44133 48.474286,120.390335 48.0419922,121.329224 C47.6096984,122.268112 47.1233751,123.568351 46.5830078,125.22998 L46.4006348,125.7771 L45.0429688,126.202637 Z M62.935791,106.202393 C63.2870298,106.202393 63.5707183,106.310464 63.7868652,106.526611 C64.0030121,106.742758 64.111084,107.026447 64.111084,107.377686 C64.111084,107.715415 63.9962577,107.999104 63.7666016,108.22876 C63.5369455,108.458416 63.2600114,108.573242 62.935791,108.573242 C62.6250798,108.573242 62.3481457,108.451661 62.1049805,108.208496 C61.8618152,107.965331 61.7402344,107.688397 61.7402344,107.377686 C61.7402344,107.053465 61.8550607,106.776531 62.0847168,106.546875 C62.3143729,106.317219 62.5980615,106.202393 62.935791,106.202393 L62.935791,106.202393 Z M62.3481445,114.145752 L60.5649414,120.8125 C60.2677394,121.906744 60.1191406,122.784827 60.1191406,123.446777 C60.1191406,123.879071 60.19344,124.230305 60.342041,124.500488 C60.490642,124.770672 60.6865222,124.905762 60.9296875,124.905762 C61.3484721,124.905762 62.0171666,124.405929 62.935791,123.40625 L63.2600098,123.689941 L63.057373,123.912842 C62.2873497,124.817957 61.7199725,125.429238 61.3552246,125.746704 C60.9904767,126.06417 60.6527522,126.2229 60.342041,126.2229 C59.9232564,126.2229 59.5686457,126.010134 59.2781982,125.584595 C58.9877508,125.159055 58.8425293,124.628828 58.8425293,123.993896 C58.8425293,123.588621 58.9235832,122.946944 59.0856934,122.068848 L60.3623047,114.976562 L62.3481445,114.145752 Z M64.4758301,126.202637 L66.6237793,114.976562 L68.5488281,114.145752 L66.8061523,121.58252 C67.9274145,119.218413 69.0419053,117.421718 70.1496582,116.192383 C71.2574111,114.963047 72.317866,114.348389 73.3310547,114.348389 C73.8308944,114.348389 74.2361638,114.513874 74.546875,114.844849 C74.8575862,115.175824 75.0129395,115.618243 75.0129395,116.172119 C75.0129395,116.48283 74.9386401,116.921872 74.7900391,117.489258 L74.5874023,118.340332 L73.9794922,120.8125 L73.7768555,121.602783 C73.5742177,122.413334 73.4729004,123.034747 73.4729004,123.467041 C73.4729004,123.899335 73.5471998,124.247191 73.6958008,124.51062 C73.8444018,124.774049 74.040282,124.905762 74.2834473,124.905762 C74.7022319,124.905762 75.3709264,124.405929 76.2895508,123.40625 L76.6137695,123.689941 L76.4111328,123.912842 C75.6411094,124.817957 75.0737323,125.429238 74.7089844,125.746704 C74.3442365,126.06417 74.006512,126.2229 73.6958008,126.2229 C73.2770161,126.2229 72.9224054,126.010134 72.631958,125.584595 C72.3415106,125.159055 72.1962891,124.628828 72.1962891,123.993896 C72.1962891,123.561603 72.2773429,122.919926 72.4394531,122.068848 L73.2297363,117.772949 C73.3378098,117.09749 73.3918457,116.624676 73.3918457,116.354492 C73.3918457,116.070799 73.3175463,115.854656 73.1689453,115.706055 C73.0203443,115.557454 72.8177096,115.483154 72.5610352,115.483154 C71.6289016,115.483154 70.4806383,116.482819 69.1162109,118.482178 C68.454261,119.44133 67.9071473,120.390335 67.4748535,121.329224 C67.0425597,122.268112 66.5562364,123.568351 66.0158691,125.22998 L65.8334961,125.7771 L64.4758301,126.202637 Z M89.0556641,114.02417 L85.9553223,126.364746 C85.6446111,127.688646 85.3710542,128.661292 85.1346436,129.282715 C84.8982329,129.904137 84.6111671,130.471514 84.2734375,130.984863 C83.6385059,131.957524 82.8651169,132.703896 81.9532471,133.223999 C81.0413773,133.744103 80.058599,134.00415 79.0048828,134.00415 C78.0457309,134.00415 77.2014197,133.733971 76.4719238,133.193604 L77.5053711,131.856201 C78.3834679,132.69377 79.2547971,133.112549 80.1193848,133.112549 C80.6732612,133.112549 81.2338839,132.936932 81.8012695,132.585693 C82.3686552,132.234455 82.7874335,131.802167 83.0576172,131.288818 C83.4088559,130.667396 83.7735984,129.539396 84.1518555,127.904785 L85.7121582,121.217773 C83.9019278,124.595069 82.0647066,126.283691 80.2004395,126.283691 C79.4439253,126.283691 78.8326439,125.996626 78.3665771,125.422485 C77.9005104,124.848345 77.6674805,124.115483 77.6674805,123.223877 C77.6674805,121.954014 78.0254684,120.630134 78.7414551,119.252197 C79.4574417,117.874261 80.3591661,116.729375 81.4466553,115.817505 C82.5341444,114.905635 83.5912221,114.449707 84.6179199,114.449707 C85.5770719,114.449707 86.3741016,114.807695 87.0090332,115.523682 L87.1914062,114.814453 L89.0556641,114.02417 Z M86.7861328,116.536865 C86.2592747,115.523677 85.5635623,115.01709 84.6989746,115.01709 C83.7938594,115.01709 82.9022668,115.516922 82.0241699,116.516602 C81.3081833,117.354171 80.6969019,118.404494 80.1903076,119.667603 C79.6837133,120.930711 79.4304199,122.062088 79.4304199,123.061768 C79.4304199,123.737227 79.5756415,124.267454 79.8660889,124.652466 C80.1565363,125.037478 80.5651829,125.22998 81.092041,125.22998 C81.6324083,125.22998 82.2301806,124.932783 82.885376,124.338379 C83.5405713,123.743975 84.1923796,122.906418 84.8408203,121.825684 C85.5838253,120.596348 86.157957,119.137378 86.5632324,117.44873 L86.7861328,116.536865 Z M99.7670898,125.568359 C99.7504882,125.573893 99.7421875,125.579427 99.7421875,125.584961 L99.6757812,125.618164 C98.9065717,126.016604 98.0903363,126.21582 97.2270508,126.21582 C96.5463833,126.21582 95.9418158,126.094077 95.4133301,125.850586 C94.8848444,125.607095 94.4781101,125.261233 94.1931152,124.812988 C93.9081203,124.364744 93.765625,123.844567 93.765625,123.252441 C93.765625,121.907708 94.6565666,120.729009 96.4384766,119.716309 L96.496582,119.683105 L96.496582,119.649902 L96.496582,119.633301 C96.496582,119.035642 96.5878897,118.450442 96.7705078,117.877686 C96.9531259,117.304929 97.1938462,116.835939 97.4926758,116.470703 C98.0349962,115.812171 98.6298796,115.48291 99.2773438,115.48291 C99.6259783,115.48291 99.9095855,115.583902 100.128174,115.785889 C100.346762,115.987875 100.456055,116.23828 100.456055,116.537109 C100.456055,117.206709 99.9552459,117.862464 98.9536133,118.504395 C98.7875968,118.615072 98.4777041,118.797688 98.0239258,119.052246 C97.5314103,119.323406 97.2076831,119.497721 97.0527344,119.575195 C97.0748699,120.073245 97.2035307,120.643226 97.4387207,121.285156 C97.6739107,121.927087 97.9602848,122.494301 98.2978516,122.986816 C98.8125026,123.739424 99.459957,124.400713 100.240234,124.970703 C100.627606,124.694009 100.973469,124.371665 101.277832,124.003662 C101.582196,123.635659 101.821532,123.256594 101.99585,122.866455 C102.170167,122.476316 102.257324,122.109702 102.257324,121.766602 C102.257324,121.412433 102.164633,121.126059 101.979248,120.907471 C101.793863,120.688882 101.554526,120.57959 101.26123,120.57959 C100.486487,120.57959 99.9109719,121.25748 99.534668,122.613281 L99.1030273,121.974121 C99.2081711,121.614419 99.3645009,121.293458 99.5720215,121.01123 C99.7795421,120.729002 100.020262,120.510417 100.294189,120.355469 C100.568117,120.20052 100.851724,120.123047 101.14502,120.123047 C101.410646,120.123047 101.651366,120.189452 101.867188,120.322266 C102.083009,120.455079 102.253173,120.640461 102.377686,120.878418 C102.502198,121.116375 102.564453,121.37923 102.564453,121.666992 C102.564453,121.94922 102.511882,122.243895 102.406738,122.551025 C102.301595,122.858156 102.157716,123.161131 101.975098,123.459961 C101.79248,123.758791 101.56421,124.057616 101.290283,124.356445 C101.016356,124.655275 100.738283,124.907063 100.456055,125.111816 L100.497559,125.136719 C101.062015,125.490887 101.631996,125.667969 102.20752,125.667969 C102.65023,125.667969 103.027912,125.582195 103.340576,125.410645 C103.65324,125.239094 103.97005,124.94857 104.291016,124.539062 L104.407227,124.671875 C103.748695,125.673508 102.890956,126.174316 101.833984,126.174316 C101.125647,126.174316 100.43669,125.972333 99.7670898,125.568359 L99.7670898,125.568359 Z M99.5097656,125.410645 C98.6630817,124.857256 97.9713569,124.097742 97.4345703,123.13208 C96.8977838,122.166418 96.587891,121.116379 96.5048828,119.981934 L96.496582,119.94043 C95.2569925,120.731775 94.637207,121.694656 94.637207,122.829102 C94.637207,123.675785 94.9332653,124.379961 95.5253906,124.94165 C96.117516,125.503339 96.859045,125.78418 97.75,125.78418 C98.3642609,125.78418 98.9508436,125.659669 99.5097656,125.410645 L99.5097656,125.410645 Z M97.0527344,119.342773 C97.8440795,118.922198 98.4417298,118.554201 98.8457031,118.23877 C99.1500666,118.01188 99.3935538,117.744875 99.5761719,117.437744 C99.75879,117.130614 99.8500977,116.838706 99.8500977,116.562012 C99.8500977,116.324055 99.7767748,116.138673 99.630127,116.005859 C99.4834791,115.873046 99.2884127,115.806641 99.0449219,115.806641 C98.6907534,115.806641 98.360109,115.951903 98.0529785,116.242432 C97.7458481,116.53296 97.5009775,116.923093 97.3183594,117.412842 C97.1357413,117.90259 97.0444336,118.426918 97.0444336,118.98584 L97.0444336,119.20166 L97.0527344,119.342773 Z M112.543213,98.4819336 L114.691162,97.4484863 L108.855225,122.433594 C111.286877,117.002903 113.671212,114.287598 116.008301,114.287598 C116.481122,114.287598 116.903278,114.412556 117.27478,114.662476 C117.646283,114.912395 117.936726,115.280515 118.146118,115.766846 C118.35551,116.253176 118.460205,116.766517 118.460205,117.306885 C118.460205,118.333583 118.217043,119.471714 117.730713,120.721313 C117.244382,121.970913 116.629724,123.041499 115.886719,123.933105 C114.562819,125.540698 113.103849,126.344482 111.509766,126.344482 C111.009926,126.344482 110.530357,126.260051 110.071045,126.091187 C109.611733,125.922322 109.098392,125.64201 108.531006,125.250244 L107.112549,126.101318 L112.543213,98.4819336 Z M108.855225,123.933105 C109.463138,125.202969 110.334467,125.837891 111.469238,125.837891 C112.279789,125.837891 113.032915,125.486657 113.728638,124.78418 C114.424361,124.081702 115.042396,123.061774 115.582764,121.724365 C115.893475,120.967851 116.150145,120.147181 116.352783,119.262329 C116.555421,118.377478 116.656738,117.671633 116.656738,117.144775 C116.656738,115.874912 116.210942,115.23999 115.319336,115.23999 C114.724932,115.23999 114.049483,115.604733 113.292969,116.334229 C112.536455,117.063724 111.776574,118.080275 111.013306,119.383911 C110.250037,120.687547 109.530684,122.20393 108.855225,123.933105 L108.855225,123.933105 Z M128.409668,122.859131 L128.774414,123.163086 C127.936845,124.270839 127.119552,125.071246 126.32251,125.564331 C125.525468,126.057416 124.667648,126.303955 123.749023,126.303955 C122.65478,126.303955 121.776696,125.939213 121.114746,125.209717 C120.452796,124.480221 120.121826,123.514329 120.121826,122.312012 C120.121826,121.096185 120.442664,119.863491 121.084351,118.613892 C121.726037,117.364292 122.529821,116.330855 123.495728,115.51355 C124.461634,114.696244 125.417394,114.287598 126.363037,114.287598 C126.916914,114.287598 127.372842,114.449705 127.730835,114.773926 C128.088828,115.098146 128.267822,115.516925 128.267822,116.030273 C128.267822,117.07048 127.700445,118.110672 126.565674,119.150879 C125.430903,120.191086 123.884124,121.075924 121.925293,121.80542 C121.911784,121.913493 121.905029,122.035074 121.905029,122.170166 C121.905029,123.1023 122.1617,123.86218 122.675049,124.449829 C123.188398,125.037479 123.850338,125.331299 124.660889,125.331299 C125.29582,125.331299 125.910479,125.132041 126.504883,124.733521 C127.099287,124.335 127.734209,123.710209 128.409668,122.859131 L128.409668,122.859131 Z M121.925293,121.319092 C123.384285,120.670651 124.50553,119.947921 125.289062,119.150879 C125.815921,118.610512 126.241453,118.029626 126.565674,117.408203 C126.889894,116.786781 127.052002,116.226158 127.052002,115.726318 C127.052002,115.091387 126.761559,114.773926 126.180664,114.773926 C125.302567,114.773926 124.414352,115.466261 123.515991,116.850952 C122.617631,118.235643 122.087403,119.725008 121.925293,121.319092 L121.925293,121.319092 Z M141.601318,114.02417 L139.696533,121.440674 C139.493895,122.251225 139.392578,122.886147 139.392578,123.345459 C139.392578,123.750734 139.480386,124.101968 139.656006,124.39917 C139.831625,124.696372 140.047769,124.844971 140.304443,124.844971 C140.69621,124.844971 141.344641,124.365402 142.249756,123.40625 L142.533447,123.689941 L142.310547,123.953369 C141.59456,124.777429 141.044069,125.354938 140.659058,125.685913 C140.274046,126.016888 139.939699,126.182373 139.656006,126.182373 C139.223712,126.182373 138.848838,125.956098 138.531372,125.50354 C138.213906,125.050982 138.055176,124.527509 138.055176,123.933105 C138.055176,123.500812 138.217284,122.521411 138.541504,120.994873 L138.703613,120.224854 C138.203774,121.386643 137.535079,122.501134 136.69751,123.568359 C135.292555,125.351571 133.948411,126.243164 132.665039,126.243164 C131.895016,126.243164 131.287112,125.96623 130.841309,125.412354 C130.395506,124.858477 130.172607,124.115483 130.172607,123.18335 C130.172607,121.913486 130.533973,120.582852 131.256714,119.191406 C131.979455,117.79996 132.877802,116.655074 133.951782,115.756714 C135.025762,114.858353 136.069331,114.40918 137.08252,114.40918 C138.149745,114.40918 138.946775,114.80094 139.473633,115.584473 L139.696533,114.814453 L141.601318,114.02417 Z M139.270996,116.61792 C139.108886,116.104571 138.835329,115.702679 138.450317,115.412231 C138.065306,115.121784 137.622887,114.976562 137.123047,114.976562 C136.528643,114.976562 135.900475,115.250119 135.238525,115.797241 C134.576575,116.344363 133.968671,117.104243 133.414795,118.076904 C132.982501,118.846928 132.621136,119.697993 132.330688,120.630127 C132.040241,121.562261 131.89502,122.332272 131.89502,122.940186 C131.89502,123.629154 132.026732,124.169513 132.290161,124.561279 C132.55359,124.953046 132.928464,125.148926 133.414795,125.148926 C134.036217,125.148926 134.684648,124.858483 135.360107,124.277588 C136.035567,123.696693 136.704261,122.865891 137.366211,121.785156 C137.771486,121.163734 138.088947,120.542321 138.318604,119.920898 C138.54826,119.299476 138.80493,118.434901 139.088623,117.327148 L139.270996,116.61792 Z M147.781738,114.145752 L145.816162,121.987793 C145.640543,122.69027 145.552734,123.284666 145.552734,123.770996 C145.552734,124.243817 145.701333,124.622069 145.998535,124.905762 C146.295737,125.189455 146.680743,125.331299 147.153564,125.331299 C148.301845,125.331299 149.49739,124.392425 150.740234,122.514648 L150.821289,122.393066 C150.848307,122.257975 150.868571,122.149903 150.88208,122.068848 L152.158691,114.976562 L154.144531,114.145752 L152.361328,120.8125 C152.064126,121.906744 151.915527,122.784827 151.915527,123.446777 C151.915527,123.879071 151.989827,124.230305 152.138428,124.500488 C152.287029,124.770672 152.482909,124.905762 152.726074,124.905762 C153.144859,124.905762 153.813553,124.405929 154.732178,123.40625 L155.056396,123.689941 L154.85376,123.912842 C154.083736,124.817957 153.516359,125.429238 153.151611,125.746704 C152.786863,126.06417 152.449139,126.2229 152.138428,126.2229 C151.719643,126.2229 151.365032,126.010134 151.074585,125.584595 C150.784138,125.159055 150.638916,124.628828 150.638916,123.993896 C150.638916,123.791259 150.645671,123.602133 150.65918,123.426514 C149.254225,125.290781 147.8628,126.2229 146.484863,126.2229 C145.795895,126.2229 145.245404,126.023643 144.833374,125.625122 C144.421344,125.226601 144.215332,124.696374 144.215332,124.034424 C144.215332,123.521075 144.289631,122.892907 144.438232,122.149902 L145.816162,114.976562 L147.781738,114.145752 Z M160.04126,115.179199 L158.501221,121.927002 C158.339111,122.670007 158.258057,123.196857 158.258057,123.507568 C158.258057,123.993899 158.372883,124.385659 158.602539,124.682861 C158.832195,124.980063 159.136147,125.128662 159.514404,125.128662 C159.879152,125.128662 160.213499,125.023968 160.517456,124.814575 C160.821413,124.605183 161.284095,124.169518 161.905518,123.507568 L162.148682,123.264404 L162.452637,123.568359 C161.655595,124.54102 160.990278,125.226601 160.456665,125.625122 C159.923052,126.023643 159.399579,126.2229 158.88623,126.2229 C158.23779,126.2229 157.721071,126.010134 157.33606,125.584595 C156.951048,125.159055 156.758545,124.60181 156.758545,123.912842 C156.758545,123.399493 156.859862,122.656499 157.0625,121.683838 L158.379639,115.179199 L156.434326,115.179199 L156.576172,114.490234 L158.521484,114.490234 L159.65625,109.019043 L161.601562,108.249023 L160.183105,114.490234 L163.46582,114.490234 L163.323975,115.179199 L160.04126,115.179199 Z M161.804199,133.193604 L162.797119,131.856201 C163.580652,132.69377 164.46549,133.112549 165.45166,133.112549 C166.491867,133.112549 167.329424,132.700525 167.964355,131.876465 C168.599287,131.052405 169.119383,129.701507 169.524658,127.82373 L170.456787,123.62915 C168.970777,125.371835 167.626634,126.243164 166.424316,126.243164 C165.721839,126.243164 165.171348,126.02702 164.772827,125.594727 C164.374306,125.162433 164.175049,124.581547 164.175049,123.852051 C164.175049,123.36572 164.235839,122.832116 164.357422,122.251221 L165.735352,114.976562 L167.700928,114.145752 L165.735352,122.312012 C165.573241,122.973962 165.492188,123.467039 165.492188,123.79126 C165.492188,124.250572 165.630655,124.625446 165.907593,124.915894 C166.184531,125.206341 166.552651,125.351562 167.011963,125.351562 C167.511803,125.351562 168.062294,125.132042 168.663452,124.692993 C169.264611,124.253945 169.936682,123.595382 170.679688,122.717285 L172.422363,114.976562 L174.327148,114.145752 L171.368652,126.060791 C171.017414,127.492764 170.683066,128.61401 170.365601,129.424561 C170.048135,130.235111 169.680015,130.91056 169.26123,131.450928 C167.937331,133.153085 166.323008,134.00415 164.418213,134.00415 C163.31046,134.00415 162.439131,133.733971 161.804199,133.193604 L161.804199,133.193604 Z M185.404297,97.4484863 L180.074951,120.8125 L179.892578,121.602783 C179.716959,122.345788 179.62915,122.973956 179.62915,123.487305 C179.62915,123.906089 179.706827,124.247191 179.862183,124.51062 C180.017538,124.774049 180.210041,124.905762 180.439697,124.905762 C180.858482,124.905762 181.527176,124.405929 182.445801,123.40625 L182.77002,123.689941 L182.567383,123.912842 C181.797359,124.817957 181.229982,125.429238 180.865234,125.746704 C180.500486,126.06417 180.162762,126.2229 179.852051,126.2229 C179.446775,126.2229 179.092165,125.996625 178.788208,125.544067 C178.484251,125.09151 178.332275,124.574791 178.332275,123.993896 C178.332275,123.588621 178.420084,122.946944 178.595703,122.068848 L183.276611,98.4819336 L185.404297,97.4484863 Z M183.783203,122.109375 C183.783203,120.893549 184.110796,119.681118 184.765991,118.472046 C185.421187,117.262974 186.268875,116.280196 187.309082,115.523682 C188.349289,114.767167 189.409744,114.388916 190.490479,114.388916 C191.62525,114.388916 192.540483,114.76379 193.236206,115.51355 C193.931929,116.263309 194.279785,117.232579 194.279785,118.421387 C194.279785,119.718268 193.958947,120.974603 193.317261,122.19043 C192.675575,123.406256 191.831263,124.402543 190.784302,125.179321 C189.73734,125.956099 188.680262,126.344482 187.613037,126.344482 C186.464757,126.344482 185.539392,125.956099 184.836914,125.179321 C184.134437,124.402543 183.783203,123.379238 183.783203,122.109375 L183.783203,122.109375 Z M192.456055,117.651367 C192.456055,116.840816 192.256797,116.172122 191.858276,115.645264 C191.459755,115.118406 190.949792,114.85498 190.328369,114.85498 C189.760983,114.85498 189.217247,115.037352 188.697144,115.4021 C188.17704,115.766848 187.700849,116.300452 187.268555,117.00293 C186.782224,117.813481 186.380332,118.759109 186.062866,119.839844 C185.7454,120.920578 185.58667,121.879716 185.58667,122.717285 C185.58667,123.716965 185.78255,124.486976 186.174316,125.027344 C186.566083,125.567711 187.126705,125.837891 187.856201,125.837891 C189.0315,125.837891 190.064937,125.020597 190.956543,123.385986 C191.415855,122.548417 191.780598,121.609543 192.050781,120.569336 C192.320965,119.529129 192.456055,118.556482 192.456055,117.651367 L192.456055,117.651367 Z M200.054932,114.145752 L198.089355,121.987793 C197.913736,122.69027 197.825928,123.284666 197.825928,123.770996 C197.825928,124.243817 197.974527,124.622069 198.271729,124.905762 C198.568931,125.189455 198.953936,125.331299 199.426758,125.331299 C200.575038,125.331299 201.770583,124.392425 203.013428,122.514648 L203.094482,122.393066 C203.121501,122.257975 203.141764,122.149903 203.155273,122.068848 L204.431885,114.976562 L206.417725,114.145752 L204.634521,120.8125 C204.337319,121.906744 204.188721,122.784827 204.188721,123.446777 C204.188721,123.879071 204.26302,124.230305 204.411621,124.500488 C204.560222,124.770672 204.756102,124.905762 204.999268,124.905762 C205.418052,124.905762 206.086747,124.405929 207.005371,123.40625 L207.32959,123.689941 L207.126953,123.912842 C206.35693,124.817957 205.789553,125.429238 205.424805,125.746704 C205.060057,126.06417 204.722332,126.2229 204.411621,126.2229 C203.992836,126.2229 203.638226,126.010134 203.347778,125.584595 C203.057331,125.159055 202.912109,124.628828 202.912109,123.993896 C202.912109,123.791259 202.918864,123.602133 202.932373,123.426514 C201.527418,125.290781 200.135993,126.2229 198.758057,126.2229 C198.069088,126.2229 197.518597,126.023643 197.106567,125.625122 C196.694537,125.226601 196.488525,124.696374 196.488525,124.034424 C196.488525,123.521075 196.562825,122.892907 196.711426,122.149902 L198.089355,114.976562 L200.054932,114.145752 Z M208.646729,126.202637 L210.794678,114.976562 L212.719727,114.145752 L210.977051,121.58252 C212.098313,119.218413 213.212804,117.421718 214.320557,116.192383 C215.42831,114.963047 216.488764,114.348389 217.501953,114.348389 C218.001793,114.348389 218.407062,114.513874 218.717773,114.844849 C219.028485,115.175824 219.183838,115.618243 219.183838,116.172119 C219.183838,116.48283 219.109539,116.921872 218.960938,117.489258 L218.758301,118.340332 L218.150391,120.8125 L217.947754,121.602783 C217.745116,122.413334 217.643799,123.034747 217.643799,123.467041 C217.643799,123.899335 217.718098,124.247191 217.866699,124.51062 C218.0153,124.774049 218.21118,124.905762 218.454346,124.905762 C218.87313,124.905762 219.541825,124.405929 220.460449,123.40625 L220.784668,123.689941 L220.582031,123.912842 C219.812008,124.817957 219.244631,125.429238 218.879883,125.746704 C218.515135,126.06417 218.17741,126.2229 217.866699,126.2229 C217.447915,126.2229 217.093304,126.010134 216.802856,125.584595 C216.512409,125.159055 216.367188,124.628828 216.367188,123.993896 C216.367188,123.561603 216.448241,122.919926 216.610352,122.068848 L217.400635,117.772949 C217.508708,117.09749 217.562744,116.624676 217.562744,116.354492 C217.562744,116.070799 217.488445,115.854656 217.339844,115.706055 C217.191243,115.557454 216.988608,115.483154 216.731934,115.483154 C215.7998,115.483154 214.651537,116.482819 213.287109,118.482178 C212.625159,119.44133 212.078046,120.390335 211.645752,121.329224 C211.213458,122.268112 210.727135,123.568351 210.186768,125.22998 L210.004395,125.7771 L208.646729,126.202637 Z M233.226562,114.02417 L230.126221,126.364746 C229.81551,127.688646 229.541953,128.661292 229.305542,129.282715 C229.069131,129.904137 228.782065,130.471514 228.444336,130.984863 C227.809404,131.957524 227.036015,132.703896 226.124146,133.223999 C225.212276,133.744103 224.229497,134.00415 223.175781,134.00415 C222.216629,134.00415 221.372318,133.733971 220.642822,133.193604 L221.67627,131.856201 C222.554366,132.69377 223.425696,133.112549 224.290283,133.112549 C224.84416,133.112549 225.404782,132.936932 225.972168,132.585693 C226.539554,132.234455 226.958332,131.802167 227.228516,131.288818 C227.579754,130.667396 227.944497,129.539396 228.322754,127.904785 L229.883057,121.217773 C228.072826,124.595069 226.235605,126.283691 224.371338,126.283691 C223.614824,126.283691 223.003542,125.996626 222.537476,125.422485 C222.071409,124.848345 221.838379,124.115483 221.838379,123.223877 C221.838379,121.954014 222.196367,120.630134 222.912354,119.252197 C223.62834,117.874261 224.530065,116.729375 225.617554,115.817505 C226.705043,114.905635 227.762121,114.449707 228.788818,114.449707 C229.74797,114.449707 230.545,114.807695 231.179932,115.523682 L231.362305,114.814453 L233.226562,114.02417 Z M230.957031,116.536865 C230.430173,115.523677 229.734461,115.01709 228.869873,115.01709 C227.964758,115.01709 227.073165,115.516922 226.195068,116.516602 C225.479082,117.354171 224.8678,118.404494 224.361206,119.667603 C223.854612,120.930711 223.601318,122.062088 223.601318,123.061768 C223.601318,123.737227 223.74654,124.267454 224.036987,124.652466 C224.327435,125.037478 224.736081,125.22998 225.262939,125.22998 C225.803307,125.22998 226.401079,124.932783 227.056274,124.338379 C227.71147,123.743975 228.363278,122.906418 229.011719,121.825684 C229.754724,120.596348 230.328855,119.137378 230.734131,117.44873 L230.957031,116.536865 Z M242.750488,122.859131 L243.115234,123.163086 C242.277665,124.270839 241.460372,125.071246 240.66333,125.564331 C239.866288,126.057416 239.008468,126.303955 238.089844,126.303955 C236.9956,126.303955 236.117516,125.939213 235.455566,125.209717 C234.793616,124.480221 234.462646,123.514329 234.462646,122.312012 C234.462646,121.096185 234.783485,119.863491 235.425171,118.613892 C236.066857,117.364292 236.870641,116.330855 237.836548,115.51355 C238.802454,114.696244 239.758215,114.287598 240.703857,114.287598 C241.257734,114.287598 241.713662,114.449705 242.071655,114.773926 C242.429649,115.098146 242.608643,115.516925 242.608643,116.030273 C242.608643,117.07048 242.041265,118.110672 240.906494,119.150879 C239.771723,120.191086 238.224945,121.075924 236.266113,121.80542 C236.252604,121.913493 236.24585,122.035074 236.24585,122.170166 C236.24585,123.1023 236.50252,123.86218 237.015869,124.449829 C237.529218,125.037479 238.191158,125.331299 239.001709,125.331299 C239.636641,125.331299 240.251299,125.132041 240.845703,124.733521 C241.440107,124.335 242.075029,123.710209 242.750488,122.859131 L242.750488,122.859131 Z M236.266113,121.319092 C237.725105,120.670651 238.84635,119.947921 239.629883,119.150879 C240.156741,118.610512 240.582274,118.029626 240.906494,117.408203 C241.230715,116.786781 241.392822,116.226158 241.392822,115.726318 C241.392822,115.091387 241.102379,114.773926 240.521484,114.773926 C239.643388,114.773926 238.755172,115.466261 237.856812,116.850952 C236.958451,118.235643 236.428223,119.725008 236.266113,121.319092 Z M105.437949,101.128967 C105.325767,100.039016 105.255654,98.9634236 105.227609,97.9021562 C105.199564,96.8408888 105.185541,95.7652961 105.185541,94.6753458 L105.017269,94.6753458 C104.400269,95.7652961 103.615008,96.7691826 102.661463,97.6870355 C101.707917,98.6048884 100.642206,99.3936564 99.4642969,100.053363 C98.2863878,100.71307 97.0383838,101.229354 95.7202474,101.602232 C94.402111,101.97511 93.0980169,102.161546 91.807926,102.161546 C86.7597442,102.161546 83.0297547,100.799128 80.6178456,98.0742527 C78.2059365,95.349377 77,91.462902 77,86.4147111 L77,60.8583727 L82.5529723,60.8583727 L82.5529723,83.1448766 C82.5529723,85.382143 82.7212425,87.3612336 83.0577879,89.0822077 C83.3943334,90.8031819 83.9692566,92.2516467 84.7825748,93.4276457 C85.5958929,94.6036448 86.6896493,95.4928014 88.0638765,96.0951424 C89.4381038,96.6974833 91.1628734,96.9986493 93.2382371,96.9986493 C93.5186916,96.9986493 94.3039526,96.8839194 95.5940435,96.6544562 C96.8841344,96.4249929 98.2443185,95.7939785 99.6746367,94.7613941 C101.104955,93.7288096 102.381004,92.179956 103.502822,90.1147871 C104.62464,88.0496181 105.185541,85.1813708 105.185541,81.5099593 L105.185541,60.8583727 L110.738513,60.8583727 L110.738513,92.265994 C110.738513,93.3559443 110.780581,94.732703 110.864717,96.3963113 C110.948854,98.0599197 111.047011,99.6374557 111.159193,101.128967 L105.437949,101.128967 Z M123.031992,60.8583727 C123.144174,61.948323 123.214287,63.0239157 123.242332,64.0851831 C123.270378,65.1464505 123.2844,66.2220432 123.2844,67.3119935 L123.452672,67.3119935 C124.069672,66.2220432 124.854933,65.2181566 125.808478,64.3003038 C126.762024,63.3824509 127.827735,62.5936829 129.005644,61.9339761 C130.183553,61.2742694 131.431557,60.7579849 132.749694,60.3851071 C134.06783,60.0122294 135.371924,59.8257933 136.662015,59.8257933 C141.710197,59.8257933 145.440186,61.1882108 147.852096,63.9130865 C150.264005,66.6379623 151.469941,70.5244373 151.469941,75.5726281 L151.469941,101.128967 L145.916969,101.128967 L145.916969,78.8424627 C145.916969,74.3679299 145.159753,70.9403744 143.645298,68.5596935 C142.130844,66.1790126 139.32634,64.98869 135.231704,64.98869 C134.95125,64.98869 134.165989,65.1034199 132.875898,65.3328831 C131.585807,65.5623463 130.225623,66.1933607 128.795304,67.2259452 C127.364986,68.2585297 126.088937,69.8073832 124.967119,71.8725522 C123.845301,73.9377212 123.2844,76.8059684 123.2844,80.47738 L123.2844,101.128967 L117.731428,101.128967 L117.731428,69.7213453 C117.731428,68.631395 117.68936,67.2546363 117.605224,65.5910279 C117.521088,63.9274196 117.42293,62.3498836 117.310748,60.8583727 L123.031992,60.8583727 Z M175.458316,66.0212693 L164.099964,66.0212693 L164.099964,89.7705939 C164.099964,91.2621049 164.240189,92.48111 164.520644,93.4276457 C164.801098,94.3741815 165.193729,95.1055846 165.698547,95.6218768 C166.203365,96.1381691 166.806333,96.4967 167.50747,96.6974803 C168.208606,96.8982606 168.979844,96.9986493 169.821208,96.9986493 C170.774754,96.9986493 171.75633,96.8552369 172.765966,96.5684079 C173.775602,96.2815789 174.701089,95.9087067 175.542452,95.4497803 L175.79486,100.698725 C173.719496,101.673944 171.223488,102.161546 168.306761,102.161546 C167.241034,102.161546 166.133255,102.018134 164.983391,101.731305 C163.833528,101.444476 162.781839,100.899509 161.828293,100.096387 C160.874748,99.293266 160.089487,98.203332 159.472487,96.8265527 C158.855487,95.4497734 158.546992,93.6427776 158.546992,91.4055112 L158.546992,66.0212693 L158.546992,60.8583727 L158.546992,49.5 L164.099964,49.5 L164.099964,60.8583727 L175.458316,60.8583727 L175.458316,66.0212693 Z M182.619503,73.4214212 C182.619503,71.6430812 182.577435,69.8360855 182.493299,68.0003797 C182.409163,66.1646739 182.33905,63.7840287 182.282959,60.8583727 L187.751795,60.8583727 L187.751795,68.3445728 L187.920067,68.3445728 C188.312704,67.2546225 188.873604,66.2077123 189.602786,65.2038107 C190.331968,64.1999091 191.215386,63.2964112 192.253068,62.4932899 C193.29075,61.6901687 194.496687,61.044813 195.870914,60.5572037 C197.245141,60.0695943 198.801641,59.8257933 200.540459,59.8257933 C202.111004,59.8257933 203.485211,59.9978882 204.66312,60.342083 L203.569353,65.935221 C202.840171,65.648392 201.77446,65.5049796 200.372187,65.5049796 C198.240732,65.5049796 196.417805,65.9208755 194.903351,66.7526797 C193.388896,67.5844838 192.126869,68.6457353 191.117233,69.9364659 C190.107597,71.2271966 189.364403,72.6182965 188.887631,74.1098074 C188.410858,75.6013183 188.172475,77.035442 188.172475,78.4122213 L188.172475,101.128967 L182.619503,101.128967 L182.619503,73.4214212 Z M236.887186,76.4331109 L236.887186,75.4005316 C236.887186,68.4592691 233.521782,64.98869 226.790873,64.98869 C222.191418,64.98869 218.180979,66.566226 214.759433,69.7213453 L211.393995,65.6770762 C215.095995,61.7762014 220.648912,59.8257933 228.052912,59.8257933 C229.960003,59.8257933 231.796953,60.112618 233.563816,60.6862761 C235.33068,61.2599341 236.859134,62.1347496 238.149225,63.3107486 C239.439316,64.4867476 240.476983,65.9638949 241.262255,67.7422349 C242.047528,69.5205748 242.440158,71.6430778 242.440158,74.1098074 L242.440158,92.0938974 C242.440158,93.6427742 242.510271,95.2633339 242.650498,96.9556251 C242.790726,98.6479164 242.944973,100.039016 243.113246,101.128967 L237.728546,101.128967 C237.560273,100.153748 237.43407,99.0924964 237.349934,97.9451803 C237.265798,96.7978642 237.22373,95.6792478 237.22373,94.5892975 L237.055458,94.5892975 C235.428822,97.2854903 233.507737,99.2215572 231.292146,100.397556 C229.076555,101.573555 226.370209,102.161546 223.173027,102.161546 C221.434209,102.161546 219.751507,101.917745 218.124871,101.430136 C216.498234,100.942526 215.053915,100.196782 213.79187,99.1928804 C212.529824,98.1889788 211.520203,96.9556324 210.762976,95.4928044 C210.005749,94.0299764 209.627141,92.3233693 209.627141,90.3729319 C209.627141,87.103081 210.454469,84.5359997 212.109151,82.671611 C213.763833,80.8072224 215.839165,79.4161225 218.335211,78.4982696 C220.831256,77.5804167 223.495534,77.0067672 226.328125,76.777304 C229.160716,76.5478408 231.754882,76.4331109 234.1107,76.4331109 L236.887186,76.4331109 Z M234.026564,81.0797179 C232.624291,81.0797179 230.871477,81.1514241 228.768068,81.2948386 C226.664659,81.4382531 224.645416,81.7824428 222.71028,82.3274179 C220.775143,82.8723931 219.120486,83.718526 217.746259,84.8658421 C216.372032,86.0131582 215.684929,87.5906942 215.684929,89.5984974 C215.684929,90.9179109 215.951356,92.0508686 216.48422,92.9974044 C217.017084,93.9439401 217.732232,94.7183669 218.629687,95.3207079 C219.527141,95.9230488 220.52274,96.3532859 221.616513,96.611432 C222.710285,96.8695781 223.818064,96.9986493 224.939882,96.9986493 C226.959155,96.9986493 228.71197,96.6544596 230.198379,95.9660699 C231.684788,95.2776803 232.932792,94.3454999 233.942428,93.1695009 C234.952065,91.9935019 235.695258,90.6167432 236.172031,89.0391836 C236.648803,87.4616239 236.887186,85.7836993 236.887186,84.0053593 L236.887186,81.0797179 L234.026564,81.0797179 Z M250.106161,60.8583727 L255.659133,60.8583727 L255.659133,67.5701383 L255.827405,67.5701383 C256.724859,66.193359 257.790571,65.0173776 259.024571,64.0421589 C260.258571,63.0669402 261.548642,62.263831 262.894824,61.6328072 C264.241006,61.0017833 265.629235,60.5428637 267.059553,60.2560347 C268.489871,59.9692057 269.850056,59.8257933 271.140146,59.8257933 C274.225146,59.8257933 277.043672,60.3564191 279.595809,61.4176865 C282.147945,62.4789539 284.34948,63.9561012 286.20048,65.8491728 C288.05148,67.7422443 289.4958,69.9794772 290.533481,72.5609384 C291.571163,75.1423997 292.089996,77.9532819 292.089996,80.9936696 C292.089996,84.0340573 291.571163,86.8449396 290.533481,89.4264008 C289.4958,92.0078621 288.05148,94.2450949 286.20048,96.1381665 C284.34948,98.0312381 282.147945,99.5083854 279.595809,100.569653 C277.043672,101.63092 274.225146,102.161546 271.140146,102.161546 C269.850056,102.161546 268.489871,102.018134 267.059553,101.731305 C265.629235,101.444476 264.241006,100.985556 262.894824,100.354532 C261.548642,99.7235082 260.258571,98.920399 259.024571,97.9451803 C257.790571,96.9699616 256.724859,95.7939803 255.827405,94.4172009 L255.659133,94.4172009 L255.659133,125.910871 L250.106161,125.910871 L250.106161,60.8583727 Z M286.032208,80.9936696 C286.032208,78.7564032 285.681645,76.6625827 284.980509,74.7121454 C284.279373,72.761708 283.283774,71.0694421 281.993683,69.635297 C280.703592,68.2011518 279.147093,67.0681942 277.324138,66.23639 C275.501184,65.4045858 273.439874,64.98869 271.140146,64.98869 C268.840419,64.98869 266.737042,65.4045858 264.829951,66.23639 C262.92286,67.0681942 261.268203,68.2011518 259.86593,69.635297 C258.463657,71.0694421 257.369901,72.761708 256.584628,74.7121454 C255.799356,76.6625827 255.406725,78.7564032 255.406725,80.9936696 C255.406725,83.230936 255.799356,85.3247565 256.584628,87.2751939 C257.369901,89.2256313 258.463657,90.9178971 259.86593,92.3520423 C261.268203,93.7861874 262.92286,94.9191451 264.829951,95.7509492 C266.737042,96.5827534 268.840419,96.9986493 271.140146,96.9986493 C273.439874,96.9986493 275.501184,96.5827534 277.324138,95.7509492 C279.147093,94.9191451 280.703592,93.7861874 281.993683,92.3520423 C283.283774,90.9178971 284.279373,89.2256313 284.980509,87.2751939 C285.681645,85.3247565 286.032208,83.230936 286.032208,80.9936696 Z" id="tanning-&amp;-beauty-lou" sketch:type="MSShapeGroup"></path>
            <path d="M19.77,78.94 C21.9233441,83.1333543 25.0966457,86.334989 29.29,88.545 C33.4833543,90.7550111 37.9033101,91.86 42.55,91.86 C44.7033441,91.86 46.8566559,91.5200034 49.01,90.84 C51.1633441,90.1599966 53.0899915,89.1966729 54.79,87.95 C56.4900085,86.7033271 57.8783279,85.2016755 58.955,83.445 C59.2323607,82.9924641 62.61392,75.0977037 55.1161707,69.7893694 C51.9200762,67.5265653 47.9537256,67.7811106 45.5114153,68.318918 C43.0691049,68.8567255 38.7704115,69.1380101 36.7245958,68.8567255 C28.7451184,67.7596061 24.3162322,63.790033 24.134033,63.6572283 C19.2473806,60.0953566 16.8106696,55.1829316 15.8593748,52.8076189 C14.074894,48.3519025 13.99,43.4213829 13.99,41.03 C13.99,39.1154368 15.5461423,29.7778318 22.3815916,23.7663574 C30.4895802,16.6357411 39.1687009,17.048584 40.8500002,17.048584 C44.1850676,17.048584 53.2630479,17.747803 60.5700014,27.2338867 C63.7376185,31.3461726 66.0887741,38.0098167 66.0258157,43.3182314 C65.9435439,50.2550905 63.6090448,53.9519671 63.6090448,53.9519671 C63.6090448,53.9519671 61.419124,52.1691346 59.09424,51.0126246 C56.7693559,49.8561145 54.6854265,49.4722345 54.6854265,49.4722345 C54.6854265,49.4722345 55.8243463,47.3612612 56.0354097,43.7806299 C56.3211986,38.9323009 54.0161283,32.621728 48.0000017,29.1640623 C44.4208087,27.1069825 37.9211423,25.2834471 31.0275877,29.7904051 C27.770276,31.9200128 25.3236048,35.478143 24.4998777,39.0889891 C24.0593872,41.0198999 23.3955076,44.6012781 25.2324216,49.1190203 C27.0693357,53.6367624 30.5283035,56.0971424 32.2614744,57.0000017 C34.8746954,58.3613048 37.7012918,59.3343523 42.1179197,58.8656023 C44.1766251,58.6471057 51.9440324,56.005739 60.9920061,61.2308367 C70.0399797,66.4559343 70.77,73.8862173 70.77,76.73 C70.77,80.8100204 70.0050077,84.3516517 68.475,87.355 C66.9449924,90.3583484 64.8483466,92.8799898 62.185,94.92 C59.5216534,96.9600102 56.490017,98.4899949 53.09,99.51 C49.689983,100.530005 46.1200187,101.04 42.38,101.04 C35.579966,101.04 29.375028,99.7366797 23.765,97.13 C18.1549719,94.5233203 13.8200153,90.5000272 10.76,85.06 L19.77,78.94 Z" id="s" sketch:type="MSShapeGroup"></path>
            <g id="Group" sketch:type="MSShapeGroup">
                <rect id="Rectangle-5" transform="translate(77.000000, 38.000000) rotate(352.000000) translate(-77.000000, -38.000000) " x="69.5" y="35.5" width="15" height="5" rx="8"></rect>
                <rect id="Rectangle-12" transform="translate(30.131328, 7.945903) rotate(-287.000000) translate(-30.131328, -7.945903) " x="22.6313275" y="5.445903" width="15" height="5" rx="8"></rect>
                <rect id="Rectangle-14" transform="translate(8.577581, 60.041562) rotate(-209.000000) translate(-8.577581, -60.041562) " x="1.07758142" y="57.5415625" width="15" height="5" rx="8"></rect>
                <rect id="Rectangle-11" transform="translate(59.868558, 15.849118) rotate(-56.000000) translate(-59.868558, -15.849118) " x="54.8685584" y="13.3491179" width="10" height="5" rx="8"></rect>
                <rect id="Rectangle-13" transform="translate(9.446487, 30.879732) rotate(200.000000) translate(-9.446487, -30.879732) " x="4.44648654" y="28.3797319" width="10" height="5" rx="8"></rect>
            </g>
        </g>
    </g>
</svg>